<svg width="32" height="32" viewBox="0 0 32 32" fill="none" xmlns="http://www.w3.org/2000/svg">
<path d="M26.667 28H2.66699V4" stroke="#525866" stroke-width="1.5" stroke-linejoin="round"/>
<path d="M22.6667 7.9974L22.1981 7.41174L22.7838 6.94322L23.2523 7.52887L22.6667 7.9974ZM22.6667 7.9974L23.4167 7.9974C23.4167 13.4973 21.6712 17.3903 18.7971 19.896C15.9413 22.3858 12.076 23.4141 8 23.4141V22.6641V21.9141C11.8464 21.9141 15.3145 20.9423 17.8114 18.7654C20.29 16.6045 21.9167 13.1642 21.9167 7.9974L22.6667 7.9974ZM19.3333 10.6641L18.8648 10.0784L22.1981 7.41174L22.6667 7.9974L23.1352 8.58305L19.8019 11.2497L19.3333 10.6641ZM22.6667 7.9974L23.2523 7.52887L25.919 10.8622L25.3333 11.3307L24.7477 11.7993L22.081 8.46592L22.6667 7.9974Z" fill="#525866"/>
</svg>
