<svg width="32" height="32" viewBox="0 0 32 32" fill="none" xmlns="http://www.w3.org/2000/svg">
<ellipse cx="20.6667" cy="14.6667" rx="8.66667" ry="2.66667" stroke="#525866" stroke-width="1.5"/>
<path d="M29.3333 20.6641C29.3333 22.1368 25.4531 23.3307 20.6667 23.3307C15.8802 23.3307 12 22.1368 12 20.6641" stroke="#525866" stroke-width="1.5"/>
<path d="M29.3333 14.6641V26.3974C29.3333 28.0174 25.4531 29.3307 20.6667 29.3307C15.8802 29.3307 12 28.0174 12 26.3974V14.6641" stroke="#525866" stroke-width="1.5"/>
<ellipse cx="11.3337" cy="5.33073" rx="8.66667" ry="2.66667" stroke="#525866" stroke-width="1.5"/>
<path d="M8.00033 14.6667C5.47791 14.3597 3.16021 13.5661 2.66699 12M8.00033 21.3333C5.47791 21.0264 3.16021 20.2327 2.66699 18.6667" stroke="#525866" stroke-width="1.5" stroke-linecap="round"/>
<path d="M8.00033 27.9948C5.47791 27.6878 3.16021 26.8942 2.66699 25.3281L2.66699 5.32812" stroke="#525866" stroke-width="1.5" stroke-linecap="round"/>
<path d="M20 7.99479V5.32812" stroke="#525866" stroke-width="1.5" stroke-linecap="round"/>
</svg>
