<svg width="48" height="48" viewBox="0 0 48 48" fill="none" xmlns="http://www.w3.org/2000/svg">
<rect x="0.5" y="0.5" width="47" height="47" rx="23.5" fill="white"/>
<rect x="0.5" y="0.5" width="47" height="47" rx="23.5" stroke="#E2E4E9"/>
<path d="M18.75 23.325L20.25 21.825L24.375 25.95L27 23.325L29.25 25.575V18.75H18.75V23.325ZM18.75 25.4467V29.25H21.075L23.3145 27.0112L20.25 23.9467L18.75 25.4467ZM23.1967 29.25H29.25V27.6968L27 25.4467L23.1967 29.25ZM18 17.25H30C30.1989 17.25 30.3897 17.329 30.5303 17.4697C30.671 17.6103 30.75 17.8011 30.75 18V30C30.75 30.1989 30.671 30.3897 30.5303 30.5303C30.3897 30.671 30.1989 30.75 30 30.75H18C17.8011 30.75 17.6103 30.671 17.4697 30.5303C17.329 30.3897 17.25 30.1989 17.25 30V18C17.25 17.8011 17.329 17.6103 17.4697 17.4697C17.6103 17.329 17.8011 17.25 18 17.25ZM26.625 22.5C26.3266 22.5 26.0405 22.3815 25.8295 22.1705C25.6185 21.9595 25.5 21.6734 25.5 21.375C25.5 21.0766 25.6185 20.7905 25.8295 20.5795C26.0405 20.3685 26.3266 20.25 26.625 20.25C26.9234 20.25 27.2095 20.3685 27.4205 20.5795C27.6315 20.7905 27.75 21.0766 27.75 21.375C27.75 21.6734 27.6315 21.9595 27.4205 22.1705C27.2095 22.3815 26.9234 22.5 26.625 22.5Z" fill="#868C98"/>
</svg>
