<svg width="32" height="32" viewBox="0 0 32 32" fill="none" xmlns="http://www.w3.org/2000/svg">
<path d="M24.8218 26.6641H25.4754C27.0085 26.6641 28.2279 25.9655 29.3228 24.9888C32.1044 22.5075 25.5658 19.9974 23.3337 19.9974M20.667 6.75575C20.9697 6.6957 21.2841 6.66406 21.6067 6.66406C24.0332 6.66406 26.0003 8.45492 26.0003 10.6641C26.0003 12.8732 24.0332 14.6641 21.6067 14.6641C21.2841 14.6641 20.9697 14.6324 20.667 14.5724" stroke="#525866" stroke-width="1.5" stroke-linecap="round"/>
<path d="M5.97508 21.479C4.40312 22.3214 0.281516 24.0415 2.79185 26.194C4.01812 27.2454 5.38388 27.9974 7.10096 27.9974H16.899C18.6161 27.9974 19.9819 27.2454 21.2082 26.194C23.7185 24.0415 19.5969 22.3214 18.0249 21.479C14.3387 19.5035 9.66132 19.5035 5.97508 21.479Z" stroke="#525866" stroke-width="1.125"/>
<path d="M17.3333 9.9974C17.3333 12.9429 14.9455 15.3307 12 15.3307C9.05448 15.3307 6.66667 12.9429 6.66667 9.9974C6.66667 7.05188 9.05448 4.66406 12 4.66406C14.9455 4.66406 17.3333 7.05188 17.3333 9.9974Z" stroke="#525866" stroke-width="1.125"/>
</svg>
