<svg width="32" height="32" viewBox="0 0 32 32" fill="none" xmlns="http://www.w3.org/2000/svg">
<path d="M4.66699 13.3307C4.66699 8.30241 4.66699 5.78826 6.32672 4.22616C7.98645 2.66406 10.6577 2.66406 16.0003 2.66406H17.0306C21.3789 2.66406 23.553 2.66406 25.0629 3.72784C25.4955 4.03263 25.8796 4.3941 26.2034 4.80125C27.3337 6.22229 27.3337 8.26854 27.3337 12.361V15.755C27.3337 19.7059 27.3337 21.6813 26.7084 23.2591C25.7032 25.7955 23.5775 27.7962 20.8825 28.7423C19.2062 29.3307 17.1072 29.3307 12.9094 29.3307C10.5107 29.3307 9.31128 29.3307 8.35336 28.9945C6.81338 28.4539 5.59866 27.3106 5.02428 25.8612C4.66699 24.9596 4.66699 23.8308 4.66699 21.5732V13.3307Z" stroke="#525866" stroke-width="1.5" stroke-linejoin="round"/>
<path d="M27.3333 16C27.3333 18.4546 25.3435 20.4444 22.8889 20.4444C22.0012 20.4444 20.9546 20.2889 20.0915 20.5202C19.3246 20.7256 18.7256 21.3246 18.5202 22.0915C18.2889 22.9546 18.4444 24.0012 18.4444 24.8889C18.4444 27.3435 16.4546 29.3333 14 29.3333" stroke="#525866" stroke-width="1.5" stroke-linecap="round" stroke-linejoin="round"/>
<path d="M10.667 9.33594H20.0003" stroke="#525866" stroke-width="1.5" stroke-linecap="round" stroke-linejoin="round"/>
<path d="M10.667 14.6641H14.667" stroke="#525866" stroke-width="1.5" stroke-linecap="round" stroke-linejoin="round"/>
</svg>
