<svg width="32" height="32" viewBox="0 0 32 32" fill="none" xmlns="http://www.w3.org/2000/svg">
<path d="M2.66699 7.9974C2.66699 3.58495 3.58788 2.66406 8.00033 2.66406H24.0003C28.4128 2.66406 29.3337 3.58495 29.3337 7.9974V23.9974C29.3337 28.4098 28.4128 29.3307 24.0003 29.3307H8.00032C3.58788 29.3307 2.66699 28.4098 2.66699 23.9974V7.9974Z" stroke="#525866" stroke-width="1.5" stroke-linecap="round" stroke-linejoin="round"/>
<path d="M2.66699 10.6641H29.3337" stroke="#525866" stroke-width="1.5"/>
<path d="M6.66699 6.66406H12.0003" stroke="#525866" stroke-width="1.5" stroke-linecap="round"/>
<path d="M25.333 6.67599V6.66406" stroke="#525866" stroke-width="1.125" stroke-linecap="round" stroke-linejoin="round"/>
<circle cx="12" cy="20" r="4" stroke="#525866" stroke-width="1.5" stroke-linecap="round" stroke-linejoin="round"/>
<path d="M20 16L20.1032 15.447C19.9388 15.4164 19.7692 15.4604 19.6406 15.5673C19.5119 15.6742 19.4375 15.8327 19.4375 16L20 16ZM19.4375 24C19.4375 24.3107 19.6893 24.5625 20 24.5625C20.3107 24.5625 20.5625 24.3107 20.5625 24L20 24L19.4375 24ZM22.7976 17.6982L22.2477 17.8163L22.2477 17.8163L22.7976 17.6982ZM23.3161 20.1115L23.866 19.9934L23.866 19.9934L23.3161 20.1115ZM21.4422 20.8198L21.4411 20.2573L21.4411 20.2573L21.4422 20.8198ZM19.863 20.3433C19.5617 20.419 19.3788 20.7245 19.4544 21.0258C19.5301 21.3272 19.8356 21.5101 20.137 21.4345L20 20.8889L19.863 20.3433ZM20 16L19.4375 16L19.4375 24L20 24L20.5625 24L20.5625 16L20 16ZM22.7976 17.6982L22.2477 17.8163L22.7661 20.2296L23.3161 20.1115L23.866 19.9934L23.3476 17.58L22.7976 17.6982ZM21.4422 20.8198L21.4411 20.2573C21.0531 20.2581 20.7469 20.2587 20.5051 20.2679C20.2653 20.277 20.0538 20.2954 19.863 20.3433L20 20.8889L20.137 21.4345C20.2117 21.4157 20.329 21.4004 20.5479 21.3921C20.7647 21.3838 21.0469 21.3831 21.4434 21.3823L21.4422 20.8198ZM22.7976 17.6982L23.3476 17.58C23.2106 16.9424 22.7464 16.4781 22.1868 16.1521C21.6248 15.8247 20.902 15.5961 20.1032 15.447L20 16L19.8968 16.553C20.6262 16.6891 21.2112 16.8857 21.6204 17.1242C22.0321 17.364 22.2026 17.6062 22.2477 17.8163L22.7976 17.6982ZM23.3161 20.1115L22.7661 20.2296C22.7799 20.2937 22.7542 20.2408 22.8076 20.1721C22.8416 20.1284 22.8541 20.1517 22.7325 20.1835C22.4779 20.25 22.059 20.2561 21.4411 20.2573L21.4422 20.8198L21.4434 21.3823C21.9966 21.3812 22.5899 21.3836 23.0171 21.2719C23.2365 21.2145 23.5072 21.105 23.6954 20.8631C23.9031 20.5963 23.9276 20.2799 23.866 19.9934L23.3161 20.1115Z" fill="#525866"/>
</svg>
