<svg width="16" height="16" viewBox="0 0 16 16" fill="none" xmlns="http://www.w3.org/2000/svg">
<path d="M7.99805 8.97772C7.45802 8.97772 7.02027 8.53994 7.02027 7.99997C7.02027 7.45994 7.45802 7.02219 7.99805 7.02219C8.53799 7.02219 8.97583 7.45994 8.97583 7.99997C8.97583 8.53994 8.53799 8.97772 7.99805 8.97772ZM13.998 7.38313H9.48732L12.6373 4.23312L12.6373 4.233L12.6768 4.19351L11.8045 3.3212L8.61489 6.51073V2H7.38138V2.05602H7.3812V6.51073L4.23128 3.3608H4.23122L4.19162 3.32128L3.31936 4.1936L6.50886 7.38313H1.99805V8.6167H2.05423V8.61679H6.50894L3.35893 11.7667L3.35901 11.7668L3.31944 11.8063L4.19179 12.6787L7.3812 9.48928V13.9999H8.6148V13.9439H8.61489V9.48919L11.7649 12.6391H11.765L11.8045 12.6787L12.6768 11.8063L9.48724 8.61679H13.998V7.38313Z" fill="white"/>
</svg>
