<svg width="20" height="20" viewBox="0 0 20 20" fill="none" xmlns="http://www.w3.org/2000/svg">
<g clip-path="url(#clip0_4648_3991)">
<path d="M10 20C15.5228 20 20 15.5228 20 10C20 4.47715 15.5228 0 10 0C4.47715 0 0 4.47715 0 10C0 15.5228 4.47715 20 10 20Z" fill="#F0F0F0"/>
<path d="M19.378 13.4799C19.78 12.3966 20 11.2249 20 10.0017C20 8.77848 19.78 7.60676 19.378 6.52344H0.621992C0.220039 7.60676 0 8.77848 0 10.0017C0 11.2249 0.220039 12.3966 0.621992 13.4799L10 14.3495L19.378 13.4799Z" fill="#0052B4"/>
<path d="M10.0001 19.9983C14.2997 19.9983 17.9652 17.2846 19.3781 13.4766H0.62207C2.035 17.2846 5.70043 19.9983 10.0001 19.9983Z" fill="#D80027"/>
</g>
<defs>
<clipPath id="clip0_4648_3991">
<rect width="20" height="20" fill="white"/>
</clipPath>
</defs>
</svg>
