<svg width="63" height="32" viewBox="0 0 63 32" fill="none" xmlns="http://www.w3.org/2000/svg">
<rect x="2" y="2" width="59" height="28" rx="14" fill="#38C793" stroke="#F6F8FA" stroke-width="2"/>
<path d="M14.12 22V12.584L11.96 13.904V11.776L14.12 10.48H16.088V22H14.12ZM23.1036 22.24C22.2876 22.24 21.5676 22.0667 20.9436 21.72C20.3196 21.368 19.8316 20.88 19.4796 20.256C19.133 19.632 18.9596 18.912 18.9596 18.096V14.384C18.9596 13.568 19.133 12.848 19.4796 12.224C19.8316 11.6 20.3196 11.1147 20.9436 10.768C21.5676 10.416 22.2876 10.24 23.1036 10.24C23.9196 10.24 24.637 10.416 25.2556 10.768C25.8796 11.1147 26.3676 11.6 26.7196 12.224C27.0716 12.848 27.2476 13.568 27.2476 14.384V18.096C27.2476 18.912 27.0716 19.632 26.7196 20.256C26.3676 20.88 25.8796 21.368 25.2556 21.72C24.637 22.0667 23.9196 22.24 23.1036 22.24ZM23.1036 20.408C23.509 20.408 23.877 20.312 24.2076 20.12C24.5383 19.9227 24.7996 19.6613 24.9916 19.336C25.1836 19.0053 25.2796 18.6373 25.2796 18.232V14.24C25.2796 13.8293 25.1836 13.4613 24.9916 13.136C24.7996 12.8053 24.5383 12.544 24.2076 12.352C23.877 12.1547 23.509 12.056 23.1036 12.056C22.6983 12.056 22.3303 12.1547 21.9996 12.352C21.669 12.544 21.4076 12.8053 21.2156 13.136C21.0236 13.4613 20.9276 13.8293 20.9276 14.24V18.232C20.9276 18.6373 21.0236 19.0053 21.2156 19.336C21.4076 19.6613 21.669 19.9227 21.9996 20.12C22.3303 20.312 22.6983 20.408 23.1036 20.408ZM33.4589 22.24C32.6429 22.24 31.9229 22.0667 31.2989 21.72C30.6749 21.368 30.1869 20.88 29.8349 20.256C29.4882 19.632 29.3149 18.912 29.3149 18.096V14.384C29.3149 13.568 29.4882 12.848 29.8349 12.224C30.1869 11.6 30.6749 11.1147 31.2989 10.768C31.9229 10.416 32.6429 10.24 33.4589 10.24C34.2749 10.24 34.9922 10.416 35.6109 10.768C36.2349 11.1147 36.7229 11.6 37.0749 12.224C37.4269 12.848 37.6029 13.568 37.6029 14.384V18.096C37.6029 18.912 37.4269 19.632 37.0749 20.256C36.7229 20.88 36.2349 21.368 35.6109 21.72C34.9922 22.0667 34.2749 22.24 33.4589 22.24ZM33.4589 20.408C33.8642 20.408 34.2322 20.312 34.5629 20.12C34.8935 19.9227 35.1549 19.6613 35.3469 19.336C35.5389 19.0053 35.6349 18.6373 35.6349 18.232V14.24C35.6349 13.8293 35.5389 13.4613 35.3469 13.136C35.1549 12.8053 34.8935 12.544 34.5629 12.352C34.2322 12.1547 33.8642 12.056 33.4589 12.056C33.0535 12.056 32.6855 12.1547 32.3549 12.352C32.0242 12.544 31.7629 12.8053 31.5709 13.136C31.3789 13.4613 31.2829 13.8293 31.2829 14.24V18.232C31.2829 18.6373 31.3789 19.0053 31.5709 19.336C31.7629 19.6613 32.0242 19.9227 32.3549 20.12C32.6855 20.312 33.0535 20.408 33.4589 20.408ZM41.2701 22L39.9901 20.72L50.2381 10.48L51.5181 11.768L41.2701 22ZM49.1181 22.24C48.5901 22.24 48.1075 22.112 47.6701 21.856C47.2381 21.5947 46.8915 21.248 46.6301 20.816C46.3688 20.3787 46.2381 19.8933 46.2381 19.36C46.2381 18.8373 46.3715 18.3573 46.6381 17.92C46.9048 17.4827 47.2568 17.1333 47.6941 16.872C48.1315 16.6107 48.6061 16.48 49.1181 16.48C49.6461 16.48 50.1288 16.6107 50.5661 16.872C51.0035 17.128 51.3501 17.4747 51.6061 17.912C51.8675 18.344 51.9981 18.8267 51.9981 19.36C51.9981 19.8933 51.8675 20.3787 51.6061 20.816C51.3501 21.248 51.0035 21.5947 50.5661 21.856C50.1288 22.112 49.6461 22.24 49.1181 22.24ZM49.1181 20.592C49.3368 20.592 49.5395 20.536 49.7261 20.424C49.9181 20.312 50.0701 20.1627 50.1821 19.976C50.2941 19.7893 50.3501 19.584 50.3501 19.36C50.3501 19.136 50.2941 18.9307 50.1821 18.744C50.0701 18.5573 49.9181 18.408 49.7261 18.296C49.5395 18.184 49.3368 18.128 49.1181 18.128C48.8941 18.128 48.6888 18.184 48.5021 18.296C48.3155 18.408 48.1635 18.5573 48.0461 18.744C47.9341 18.9307 47.8781 19.136 47.8781 19.36C47.8781 19.584 47.9341 19.7893 48.0461 19.976C48.1635 20.1627 48.3155 20.312 48.5021 20.424C48.6888 20.536 48.8941 20.592 49.1181 20.592ZM42.3901 16C41.8621 16 41.3795 15.872 40.9421 15.616C40.5048 15.3547 40.1555 15.008 39.8941 14.576C39.6381 14.1387 39.5101 13.6533 39.5101 13.12C39.5101 12.5973 39.6435 12.1173 39.9101 11.68C40.1768 11.2427 40.5288 10.8933 40.9661 10.632C41.4035 10.3707 41.8781 10.24 42.3901 10.24C42.9181 10.24 43.3981 10.3707 43.8301 10.632C44.2675 10.888 44.6168 11.2347 44.8781 11.672C45.1395 12.104 45.2701 12.5867 45.2701 13.12C45.2701 13.6533 45.1395 14.1387 44.8781 14.576C44.6168 15.008 44.2675 15.3547 43.8301 15.616C43.3981 15.872 42.9181 16 42.3901 16ZM42.3901 14.352C42.6141 14.352 42.8195 14.296 43.0061 14.184C43.1928 14.072 43.3421 13.9227 43.4541 13.736C43.5661 13.5493 43.6221 13.344 43.6221 13.12C43.6221 12.896 43.5661 12.6907 43.4541 12.504C43.3421 12.3173 43.1928 12.168 43.0061 12.056C42.8195 11.944 42.6141 11.888 42.3901 11.888C42.1661 11.888 41.9608 11.944 41.7741 12.056C41.5875 12.168 41.4381 12.3173 41.3261 12.504C41.2141 12.6907 41.1581 12.896 41.1581 13.12C41.1581 13.344 41.2141 13.5493 41.3261 13.736C41.4381 13.9227 41.5875 14.072 41.7741 14.184C41.9608 14.296 42.1661 14.352 42.3901 14.352Z" fill="white"/>
</svg>
