<svg width="64" height="64" viewBox="0 0 64 64" fill="none" xmlns="http://www.w3.org/2000/svg">
<rect x="0.666667" y="0.666667" width="62.6667" height="62.6667" rx="31.3333" fill="white"/>
<rect x="0.666667" y="0.666667" width="62.6667" height="62.6667" rx="31.3333" stroke="#E2E4E9" stroke-width="1.33333"/>
<path d="M32 44C25.3724 44 20 38.6276 20 32C20 25.3724 25.3724 20 32 20C38.6276 20 44 25.3724 44 32C44 38.6276 38.6276 44 32 44ZM32 41.6C34.5461 41.6 36.9879 40.5886 38.7882 38.7882C40.5886 36.9879 41.6 34.5461 41.6 32C41.6 29.4539 40.5886 27.0121 38.7882 25.2118C36.9879 23.4114 34.5461 22.4 32 22.4C29.4539 22.4 27.0121 23.4114 25.2118 25.2118C23.4114 27.0121 22.4 29.4539 22.4 32C22.4 34.5461 23.4114 36.9879 25.2118 38.7882C27.0121 40.5886 29.4539 41.6 32 41.6ZM26 38C26 36.4087 26.6321 34.8826 27.7574 33.7574C28.8826 32.6321 30.4087 32 32 32C33.5913 32 35.1174 32.6321 36.2426 33.7574C37.3679 34.8826 38 36.4087 38 38H35.6C35.6 37.0452 35.2207 36.1295 34.5456 35.4544C33.8705 34.7793 32.9548 34.4 32 34.4C31.0452 34.4 30.1295 34.7793 29.4544 35.4544C28.7793 36.1295 28.4 37.0452 28.4 38H26ZM27.2 30.8C26.7226 30.8 26.2648 30.6104 25.9272 30.2728C25.5896 29.9352 25.4 29.4774 25.4 29C25.4 28.5226 25.5896 28.0648 25.9272 27.7272C26.2648 27.3896 26.7226 27.2 27.2 27.2C27.6774 27.2 28.1352 27.3896 28.4728 27.7272C28.8104 28.0648 29 28.5226 29 29C29 29.4774 28.8104 29.9352 28.4728 30.2728C28.1352 30.6104 27.6774 30.8 27.2 30.8ZM36.8 30.8C36.3226 30.8 35.8648 30.6104 35.5272 30.2728C35.1896 29.9352 35 29.4774 35 29C35 28.5226 35.1896 28.0648 35.5272 27.7272C35.8648 27.3896 36.3226 27.2 36.8 27.2C37.2774 27.2 37.7352 27.3896 38.0728 27.7272C38.4104 28.0648 38.6 28.5226 38.6 29C38.6 29.4774 38.4104 29.9352 38.0728 30.2728C37.7352 30.6104 37.2774 30.8 36.8 30.8Z" fill="#F27B2C"/>
</svg>
