<svg width="36" height="36" viewBox="0 0 36 36" fill="none" xmlns="http://www.w3.org/2000/svg">
<g filter="url(#filter0_d_5279_22396)">
<path d="M2 9C2 4.58172 5.58172 1 10 1H26C30.4183 1 34 4.58172 34 9V25C34 29.4183 30.4183 33 26 33H10C5.58172 33 2 29.4183 2 25V9Z" fill="white"/>
<path d="M21.75 12.5H25.5V14H24V23.75C24 23.9489 23.921 24.1397 23.7803 24.2803C23.6397 24.421 23.4489 24.5 23.25 24.5H12.75C12.5511 24.5 12.3603 24.421 12.2197 24.2803C12.079 24.1397 12 23.9489 12 23.75V14H10.5V12.5H14.25V10.25C14.25 10.0511 14.329 9.86032 14.4697 9.71967C14.6103 9.57902 14.8011 9.5 15 9.5H21C21.1989 9.5 21.3897 9.57902 21.5303 9.71967C21.671 9.86032 21.75 10.0511 21.75 10.25V12.5ZM22.5 14H13.5V23H22.5V14ZM15.75 16.25H17.25V20.75H15.75V16.25ZM18.75 16.25H20.25V20.75H18.75V16.25ZM15.75 11V12.5H20.25V11H15.75Z" fill="#DF1C41"/>
</g>
<defs>
<filter id="filter0_d_5279_22396" x="0" y="0" width="36" height="36" filterUnits="userSpaceOnUse" color-interpolation-filters="sRGB">
<feFlood flood-opacity="0" result="BackgroundImageFix"/>
<feColorMatrix in="SourceAlpha" type="matrix" values="0 0 0 0 0 0 0 0 0 0 0 0 0 0 0 0 0 0 127 0" result="hardAlpha"/>
<feOffset dy="1"/>
<feGaussianBlur stdDeviation="1"/>
<feComposite in2="hardAlpha" operator="out"/>
<feColorMatrix type="matrix" values="0 0 0 0 0.321569 0 0 0 0 0.345098 0 0 0 0 0.4 0 0 0 0.06 0"/>
<feBlend mode="normal" in2="BackgroundImageFix" result="effect1_dropShadow_5279_22396"/>
<feBlend mode="normal" in="SourceGraphic" in2="effect1_dropShadow_5279_22396" result="shape"/>
</filter>
</defs>
</svg>
