<svg width="36" height="36" viewBox="0 0 36 36" fill="none" xmlns="http://www.w3.org/2000/svg">
<g filter="url(#filter0_d_5279_22327)">
<path d="M2 9C2 4.58172 5.58172 1 10 1H26C30.4183 1 34 4.58172 34 9V25C34 29.4183 30.4183 33 26 33H10C5.58172 33 2 29.4183 2 25V9Z" fill="white"/>
<path d="M24 20.75H25.5V22.25H10.5V20.75H12V15.5C12 13.9087 12.6321 12.3826 13.7574 11.2574C14.8826 10.1321 16.4087 9.5 18 9.5C19.5913 9.5 21.1174 10.1321 22.2426 11.2574C23.3679 12.3826 24 13.9087 24 15.5V20.75ZM22.5 20.75V15.5C22.5 14.3065 22.0259 13.1619 21.182 12.318C20.3381 11.4741 19.1935 11 18 11C16.8065 11 15.6619 11.4741 14.818 12.318C13.9741 13.1619 13.5 14.3065 13.5 15.5V20.75H22.5ZM15.75 23.75H20.25V25.25H15.75V23.75Z" fill="#525866"/>
</g>
<defs>
<filter id="filter0_d_5279_22327" x="0" y="0" width="36" height="36" filterUnits="userSpaceOnUse" color-interpolation-filters="sRGB">
<feFlood flood-opacity="0" result="BackgroundImageFix"/>
<feColorMatrix in="SourceAlpha" type="matrix" values="0 0 0 0 0 0 0 0 0 0 0 0 0 0 0 0 0 0 127 0" result="hardAlpha"/>
<feOffset dy="1"/>
<feGaussianBlur stdDeviation="1"/>
<feComposite in2="hardAlpha" operator="out"/>
<feColorMatrix type="matrix" values="0 0 0 0 0.321569 0 0 0 0 0.345098 0 0 0 0 0.4 0 0 0 0.06 0"/>
<feBlend mode="normal" in2="BackgroundImageFix" result="effect1_dropShadow_5279_22327"/>
<feBlend mode="normal" in="SourceGraphic" in2="effect1_dropShadow_5279_22327" result="shape"/>
</filter>
</defs>
</svg>
