<svg width="36" height="36" viewBox="0 0 36 36" fill="none" xmlns="http://www.w3.org/2000/svg">
<g filter="url(#filter0_d_5279_22419)">
<path d="M2 9C2 4.58172 5.58172 1 10 1H26C30.4183 1 34 4.58172 34 9V25C34 29.4183 30.4183 33 26 33H10C5.58172 33 2 29.4183 2 25V9Z" fill="white"/>
<path d="M10 1.5H26C30.1421 1.5 33.5 4.85786 33.5 9V25C33.5 29.1421 30.1421 32.5 26 32.5H10C5.85786 32.5 2.5 29.1421 2.5 25V9C2.5 4.85786 5.85786 1.5 10 1.5Z" stroke="#E2E4E9"/>
<path d="M15.5175 11L17.4727 9.04475C17.6134 8.90415 17.8041 8.82516 18.003 8.82516C18.2018 8.82516 18.3926 8.90415 18.5332 9.04475L20.4885 11H23.253C23.4519 11 23.6426 11.079 23.7833 11.2197C23.9239 11.3603 24.003 11.5511 24.003 11.75V14.5145L25.9582 16.4698C26.0988 16.6104 26.1778 16.8011 26.1778 17C26.1778 17.1989 26.0988 17.3896 25.9582 17.5303L24.003 19.4855V22.25C24.003 22.4489 23.9239 22.6397 23.7833 22.7803C23.6426 22.921 23.4519 23 23.253 23H20.4885L18.5332 24.9553C18.3926 25.0959 18.2018 25.1748 18.003 25.1748C17.8041 25.1748 17.6134 25.0959 17.4727 24.9553L15.5175 23H12.753C12.5541 23 12.3633 22.921 12.2226 22.7803C12.082 22.6397 12.003 22.4489 12.003 22.25V19.4855L10.0477 17.5303C9.90711 17.3896 9.82812 17.1989 9.82812 17C9.82812 16.8011 9.90711 16.6104 10.0477 16.4698L12.003 14.5145V11.75C12.003 11.5511 12.082 11.3603 12.2226 11.2197C12.3633 11.079 12.5541 11 12.753 11H15.5175ZM13.503 12.5V15.1363L11.6392 17L13.503 18.8638V21.5H16.1392L18.003 23.3638L19.8667 21.5H22.503V18.8638L24.3667 17L22.503 15.1363V12.5H19.8667L18.003 10.6363L16.1392 12.5H13.503ZM18.003 20C17.2073 20 16.4443 19.6839 15.8816 19.1213C15.319 18.5587 15.003 17.7957 15.003 17C15.003 16.2044 15.319 15.4413 15.8816 14.8787C16.4443 14.3161 17.2073 14 18.003 14C18.7986 14 19.5617 14.3161 20.1243 14.8787C20.6869 15.4413 21.003 16.2044 21.003 17C21.003 17.7957 20.6869 18.5587 20.1243 19.1213C19.5617 19.6839 18.7986 20 18.003 20ZM18.003 18.5C18.4008 18.5 18.7823 18.342 19.0636 18.0607C19.3449 17.7794 19.503 17.3978 19.503 17C19.503 16.6022 19.3449 16.2206 19.0636 15.9393C18.7823 15.658 18.4008 15.5 18.003 15.5C17.6051 15.5 17.2236 15.658 16.9423 15.9393C16.661 16.2206 16.503 16.6022 16.503 17C16.503 17.3978 16.661 17.7794 16.9423 18.0607C17.2236 18.342 17.6051 18.5 18.003 18.5Z" fill="#525866"/>
</g>
<defs>
<filter id="filter0_d_5279_22419" x="0" y="0" width="36" height="36" filterUnits="userSpaceOnUse" color-interpolation-filters="sRGB">
<feFlood flood-opacity="0" result="BackgroundImageFix"/>
<feColorMatrix in="SourceAlpha" type="matrix" values="0 0 0 0 0 0 0 0 0 0 0 0 0 0 0 0 0 0 127 0" result="hardAlpha"/>
<feOffset dy="1"/>
<feGaussianBlur stdDeviation="1"/>
<feComposite in2="hardAlpha" operator="out"/>
<feColorMatrix type="matrix" values="0 0 0 0 0.321569 0 0 0 0 0.345098 0 0 0 0 0.4 0 0 0 0.06 0"/>
<feBlend mode="normal" in2="BackgroundImageFix" result="effect1_dropShadow_5279_22419"/>
<feBlend mode="normal" in="SourceGraphic" in2="effect1_dropShadow_5279_22419" result="shape"/>
</filter>
</defs>
</svg>
