<svg width="361" height="300" viewBox="0 0 361 300" fill="none" xmlns="http://www.w3.org/2000/svg">
<rect width="361" height="300" rx="16" fill="white"/>
<line x1="25.3035" y1="48.6046" x2="27.6926" y2="265.684" stroke="#E2E4E9" stroke-width="0.868774" stroke-dasharray="1.74 1.74"/>
<path d="M27.4944 278.091V275.518H26.0588C25.5933 275.518 25.232 275.63 24.9749 275.854C24.7209 276.079 24.594 276.395 24.594 276.802C24.594 277.212 24.7209 277.529 24.9749 277.754C25.232 277.979 25.5933 278.091 26.0588 278.091H27.4944ZM26.22 278.989L24.3743 281.641H23.1194L25.0823 278.848C24.594 278.721 24.2034 278.475 23.9104 278.11C23.6174 277.743 23.4709 277.305 23.4709 276.797C23.4709 276.143 23.689 275.612 24.1252 275.205C24.5647 274.798 25.136 274.595 25.8391 274.595H28.5832V281.641H27.4944V278.989H26.22Z" fill="#868C98"/>
<line x1="52.6419" y1="48.6094" x2="52.6419" y2="266.097" stroke="#E2E4E9" stroke-width="0.868774" stroke-dasharray="1.74 1.74"/>
<path d="M51.6755 280.489V276.52C51.0408 276.546 50.5378 276.736 50.1667 277.091C49.7957 277.446 49.6101 277.916 49.6101 278.502C49.6101 279.094 49.794 279.568 50.1619 279.923C50.533 280.278 51.0375 280.466 51.6755 280.489ZM54.8054 278.507C54.8054 277.914 54.6199 277.441 54.2488 277.086C53.8809 276.731 53.3796 276.542 52.7449 276.52V280.489C53.3796 280.463 53.8809 280.273 54.2488 279.918C54.6199 279.563 54.8054 279.093 54.8054 278.507ZM51.6707 281.422C50.7039 281.396 49.9356 281.122 49.366 280.602C48.7963 280.077 48.5115 279.378 48.5115 278.502C48.5115 277.63 48.7963 276.933 49.366 276.412C49.9356 275.891 50.7039 275.616 51.6707 275.587V274.884H52.7498V275.587C53.7165 275.613 54.4848 275.888 55.0544 276.412C55.6241 276.933 55.9089 277.631 55.9089 278.507C55.9089 279.376 55.6241 280.073 55.0544 280.597C54.4848 281.118 53.7165 281.393 52.7498 281.422V282.164H51.6707V281.422Z" fill="#868C98"/>
<line x1="78.7855" y1="48.6094" x2="78.7855" y2="266.097" stroke="#E2E4E9" stroke-width="0.868774" stroke-dasharray="1.74 1.74"/>
<path d="M81.9158 282.047H80.9148V276.861H80.8806L78.7566 281.993H77.946L75.8171 276.861H75.783V282.047H74.7869V275.001H76.0515L78.3318 280.562H78.3708L80.6462 275.001H81.9158V282.047Z" fill="#868C98"/>
<line x1="104.93" y1="48.6094" x2="104.93" y2="266.097" stroke="#E2E4E9" stroke-width="0.868774" stroke-dasharray="1.74 1.74"/>
<path d="M106.473 282.047L105.828 280.143H103.143L102.498 282.047H101.361L103.905 275.001H105.086L107.63 282.047H106.473ZM104.471 276.173L103.421 279.264H105.55L104.5 276.173H104.471Z" fill="#868C98"/>
<line x1="131.073" y1="48.6094" x2="131.073" y2="266.097" stroke="#E2E4E9" stroke-width="0.868774" stroke-dasharray="1.74 1.74"/>
<path d="M134.203 282.047H133.202V276.861H133.168L131.044 281.993H130.234L128.105 276.861H128.071V282.047H127.074V275.001H128.339L130.619 280.562H130.658L132.934 275.001H134.203V282.047Z" fill="#868C98"/>
<line x1="157.217" y1="48.6094" x2="157.217" y2="266.097" stroke="#E2E4E9" stroke-width="0.868774" stroke-dasharray="1.74 1.74"/>
<path d="M158.604 282.047V276.744H158.531L154.942 282.047H153.878V275.001H154.962V280.318H155.035L158.624 275.001H159.688V282.047H158.604Z" fill="#868C98"/>
<line x1="183.361" y1="48.6094" x2="183.361" y2="266.097" stroke="#E2E4E9" stroke-width="0.868774" stroke-dasharray="1.74 1.74"/>
<path d="M184.748 282.047V276.744H184.675L181.086 282.047H180.022V275.001H181.106V280.318H181.179L184.768 275.001H185.832V282.047H184.748Z" fill="#868C98"/>
<line x1="209.505" y1="48.6094" x2="209.505" y2="266.097" stroke="#E2E4E9" stroke-width="0.868774" stroke-dasharray="1.74 1.74"/>
<path d="M211.048 282.047L210.404 280.143H207.718L207.073 282.047H205.936L208.48 275.001H209.661L212.205 282.047H211.048ZM209.046 276.173L207.996 279.264H210.125L209.075 276.173H209.046Z" fill="#868C98"/>
<line x1="235.649" y1="48.6094" x2="235.649" y2="266.097" stroke="#E2E4E9" stroke-width="0.868774" stroke-dasharray="1.74 1.74"/>
<path d="M235.366 282.179C234.376 282.179 233.59 281.85 233.008 281.192C232.428 280.535 232.138 279.645 232.138 278.521C232.138 277.405 232.43 276.518 233.012 275.86C233.598 275.2 234.383 274.869 235.366 274.869C236.141 274.869 236.8 275.086 237.344 275.519C237.89 275.948 238.222 276.515 238.34 277.218H237.241C237.127 276.801 236.899 276.467 236.557 276.217C236.219 275.966 235.822 275.841 235.366 275.841C234.725 275.841 234.212 276.085 233.828 276.573C233.447 277.058 233.257 277.708 233.257 278.521C233.257 279.345 233.447 279.999 233.828 280.484C234.209 280.966 234.723 281.207 235.371 281.207C235.84 281.207 236.237 281.098 236.562 280.88C236.891 280.662 237.117 280.356 237.241 279.962H238.34C238.187 280.662 237.85 281.207 237.329 281.598C236.811 281.985 236.157 282.179 235.366 282.179Z" fill="#868C98"/>
<line x1="261.793" y1="48.6094" x2="261.793" y2="266.097" stroke="#E2E4E9" stroke-width="0.868774" stroke-dasharray="1.74 1.74"/>
<path d="M261.358 274.884C262.371 274.884 263.173 275.211 263.766 275.865C264.361 276.52 264.659 277.407 264.659 278.526C264.659 279.646 264.363 280.533 263.771 281.188C263.178 281.839 262.374 282.164 261.358 282.164C260.343 282.164 259.539 281.839 258.946 281.188C258.354 280.533 258.058 279.646 258.058 278.526C258.058 277.407 258.354 276.52 258.946 275.865C259.539 275.211 260.343 274.884 261.358 274.884ZM261.358 275.846C260.688 275.846 260.156 276.087 259.762 276.568C259.371 277.05 259.176 277.703 259.176 278.526C259.176 279.347 259.371 279.998 259.762 280.479C260.156 280.961 260.688 281.202 261.358 281.202C262.026 281.202 262.555 280.961 262.945 280.479C263.339 279.998 263.536 279.347 263.536 278.526C263.536 277.703 263.339 277.05 262.945 276.568C262.555 276.087 262.026 275.846 261.358 275.846Z" fill="#868C98"/>
<line x1="287.937" y1="48.6094" x2="287.937" y2="266.097" stroke="#E2E4E9" stroke-width="0.868774" stroke-dasharray="1.74 1.74"/>
<path d="M290.407 282.047H289.314V278.927H285.696V282.047H284.602V275.001H285.696V277.979H289.314V275.001H290.407V282.047Z" fill="#868C98"/>
<line x1="314.081" y1="48.6094" x2="314.081" y2="266.097" stroke="#E2E4E9" stroke-width="0.868774" stroke-dasharray="1.74 1.74"/>
<path d="M312.357 279.322C312.331 279.758 312.284 280.112 312.216 280.382C312.147 280.649 312.033 280.875 311.874 281.061V281.1H315.096V275.943H312.572L312.357 279.322ZM311.102 282.047V283.438H310.096V281.1H310.609C310.85 280.96 311.024 280.743 311.132 280.45C311.242 280.157 311.312 279.765 311.342 279.273L311.6 275.001H316.19V281.1H317.069V283.438H316.068V282.047H311.102Z" fill="#868C98"/>
<rect x="287.583" y="76.4062" width="3.4751" height="190.262" rx="1.73755" fill="#38C793"/>
<rect x="312.859" y="48.6094" width="3.4751" height="218.062" rx="1.73755" fill="#38C793"/>
<rect x="260.257" y="96.1328" width="3.4751" height="170.539" rx="1.73755" fill="#F2AE40"/>
<rect x="234.931" y="154.82" width="3.4751" height="111.852" rx="1.73755" fill="#DF1C41"/>
<rect x="207.604" y="76.4062" width="3.4751" height="187.941" rx="1.73755" fill="#38C793"/>
<rect x="182.017" y="212.32" width="3.4751" height="52.0334" rx="1.73755" fill="#DF1C41"/>
<rect x="156.429" y="113.531" width="3.4751" height="150.817" rx="1.73755" fill="#F2AE40"/>
<rect x="129.235" y="125.273" width="3.4751" height="139.078" rx="1.73755" fill="#DF1C41"/>
<rect x="104.302" y="154.82" width="3.4751" height="109.532" rx="1.73755" fill="#DF1C41"/>
<rect x="50.9131" y="180.453" width="3.4751" height="83.9012" rx="1.73755" fill="#DF1C41"/>
<path d="M331.802 59.6094V52.8848H331.78L329.729 54.3618V53.3413L331.791 51.8589H332.736V59.6094H331.802ZM337.415 59.7383C336.516 59.7383 335.814 59.3802 335.309 58.6641C334.808 57.9443 334.557 56.9668 334.557 55.7314C334.557 54.5068 334.81 53.5347 335.314 52.8149C335.823 52.0916 336.523 51.73 337.415 51.73C338.306 51.73 339.003 52.0898 339.504 52.8096C340.009 53.5257 340.261 54.4979 340.261 55.7261C340.261 56.9614 340.011 57.939 339.509 58.6587C339.008 59.3784 338.31 59.7383 337.415 59.7383ZM336.023 58.0464C336.353 58.6121 336.817 58.895 337.415 58.895C338.013 58.895 338.474 58.6139 338.8 58.0518C339.126 57.486 339.289 56.7126 339.289 55.7314C339.289 54.7646 339.124 53.9984 338.795 53.4326C338.465 52.8633 338.005 52.5786 337.415 52.5786C336.824 52.5786 336.362 52.8633 336.029 53.4326C335.696 54.002 335.529 54.7664 335.529 55.7261C335.529 56.7072 335.694 57.4806 336.023 58.0464ZM344.085 59.7383C343.187 59.7383 342.485 59.3802 341.98 58.6641C341.479 57.9443 341.228 56.9668 341.228 55.7314C341.228 54.5068 341.48 53.5347 341.985 52.8149C342.494 52.0916 343.194 51.73 344.085 51.73C344.977 51.73 345.674 52.0898 346.175 52.8096C346.68 53.5257 346.932 54.4979 346.932 55.7261C346.932 56.9614 346.681 57.939 346.18 58.6587C345.679 59.3784 344.981 59.7383 344.085 59.7383ZM342.694 58.0464C343.024 58.6121 343.487 58.895 344.085 58.895C344.683 58.895 345.145 58.6139 345.471 58.0518C345.797 57.486 345.96 56.7126 345.96 55.7314C345.96 54.7646 345.795 53.9984 345.466 53.4326C345.136 52.8633 344.676 52.5786 344.085 52.5786C343.495 52.5786 343.033 52.8633 342.7 53.4326C342.367 54.002 342.2 54.7664 342.2 55.7261C342.2 56.7072 342.365 57.4806 342.694 58.0464Z" fill="#525866"/>
<path d="M333.891 88.8867C333.232 88.8867 332.669 88.7041 332.199 88.3389C331.73 87.9736 331.437 87.4867 331.319 86.8779H332.302C332.405 87.2288 332.602 87.5117 332.892 87.7266C333.182 87.9378 333.519 88.0435 333.902 88.0435C334.547 88.0435 335.046 87.7642 335.401 87.2056C335.759 86.6434 335.945 85.8467 335.959 84.8154H335.954H335.943C335.778 85.1986 335.499 85.5065 335.105 85.7393C334.715 85.9684 334.273 86.083 333.779 86.083C333.041 86.083 332.427 85.8395 331.936 85.3525C331.449 84.8656 331.206 84.255 331.206 83.521C331.206 82.7547 331.464 82.1227 331.979 81.625C332.498 81.1237 333.156 80.873 333.95 80.873C334.534 80.873 335.048 81.0252 335.492 81.3296C335.936 81.6304 336.276 82.0583 336.512 82.6133C336.767 83.2005 336.894 83.9131 336.894 84.751C336.894 86.0579 336.631 87.0749 336.104 87.8018C335.578 88.5251 334.84 88.8867 333.891 88.8867ZM333.945 85.2344C334.457 85.2344 334.883 85.0715 335.223 84.7456C335.564 84.4198 335.734 84.0098 335.734 83.5156C335.734 83.0179 335.562 82.599 335.218 82.2588C334.878 81.915 334.459 81.7432 333.961 81.7432C333.463 81.7432 333.043 81.9132 332.699 82.2534C332.355 82.59 332.183 83.0018 332.183 83.4888C332.183 83.9937 332.35 84.4108 332.683 84.7402C333.016 85.0697 333.437 85.2344 333.945 85.2344ZM340.723 88.8867C339.825 88.8867 339.123 88.5286 338.618 87.8125C338.117 87.0928 337.866 86.1152 337.866 84.8799C337.866 83.6553 338.118 82.6831 338.623 81.9634C339.132 81.2401 339.832 80.8784 340.723 80.8784C341.615 80.8784 342.311 81.2383 342.813 81.958C343.318 82.6742 343.57 83.6463 343.57 84.8745C343.57 86.1099 343.319 87.0874 342.818 87.8071C342.317 88.5269 341.619 88.8867 340.723 88.8867ZM339.332 87.1948C339.662 87.7606 340.125 88.0435 340.723 88.0435C341.321 88.0435 341.783 87.7624 342.109 87.2002C342.435 86.6344 342.598 85.861 342.598 84.8799C342.598 83.9131 342.433 83.1468 342.104 82.5811C341.774 82.0117 341.314 81.7271 340.723 81.7271C340.133 81.7271 339.671 82.0117 339.338 82.5811C339.005 83.1504 338.838 83.9149 338.838 84.8745C338.838 85.8556 339.003 86.6291 339.332 87.1948Z" fill="#525866"/>
<path d="M334.079 118.043C333.259 118.043 332.586 117.835 332.06 117.42C331.533 117.001 331.27 116.467 331.27 115.819C331.27 115.336 331.422 114.912 331.727 114.546C332.031 114.181 332.434 113.941 332.935 113.827V113.805C332.516 113.676 332.185 113.458 331.942 113.15C331.698 112.838 331.576 112.479 331.576 112.07C331.576 111.487 331.813 111.001 332.285 110.615C332.762 110.228 333.36 110.035 334.079 110.035C334.803 110.035 335.399 110.228 335.868 110.615C336.341 110.998 336.577 111.485 336.577 112.076C336.577 112.48 336.457 112.837 336.217 113.145C335.977 113.452 335.646 113.673 335.223 113.805V113.827C335.725 113.945 336.128 114.187 336.432 114.552C336.74 114.917 336.894 115.34 336.894 115.819C336.894 116.467 336.631 117.001 336.104 117.42C335.578 117.835 334.903 118.043 334.079 118.043ZM334.079 117.2C334.613 117.2 335.05 117.064 335.39 116.792C335.734 116.519 335.906 116.172 335.906 115.75C335.906 115.323 335.734 114.974 335.39 114.702C335.05 114.43 334.613 114.294 334.079 114.294C333.546 114.294 333.107 114.432 332.763 114.708C332.423 114.98 332.253 115.327 332.253 115.75C332.253 116.172 332.425 116.519 332.769 116.792C333.113 117.064 333.549 117.2 334.079 117.2ZM334.079 113.445C334.531 113.445 334.899 113.325 335.186 113.085C335.476 112.846 335.621 112.538 335.621 112.162C335.621 111.782 335.478 111.472 335.191 111.232C334.905 110.989 334.534 110.867 334.079 110.867C333.625 110.867 333.254 110.989 332.968 111.232C332.681 111.472 332.538 111.782 332.538 112.162C332.538 112.538 332.681 112.846 332.968 113.085C333.254 113.325 333.625 113.445 334.079 113.445ZM340.723 118.043C339.825 118.043 339.123 117.685 338.618 116.969C338.117 116.249 337.866 115.271 337.866 114.036C337.866 112.812 338.118 111.839 338.623 111.12C339.132 110.396 339.832 110.035 340.723 110.035C341.615 110.035 342.311 110.395 342.813 111.114C343.318 111.83 343.57 112.803 343.57 114.031C343.57 115.266 343.319 116.244 342.818 116.963C342.317 117.683 341.619 118.043 340.723 118.043ZM339.332 116.351C339.662 116.917 340.125 117.2 340.723 117.2C341.321 117.2 341.783 116.919 342.109 116.356C342.435 115.791 342.598 115.017 342.598 114.036C342.598 113.069 342.433 112.303 342.104 111.737C341.774 111.168 341.314 110.883 340.723 110.883C340.133 110.883 339.671 111.168 339.338 111.737C339.005 112.307 338.838 113.071 338.838 114.031C338.838 115.012 339.003 115.785 339.332 116.351Z" fill="#525866"/>
<path d="M332.549 147.062L336.056 140.193V140.171H331.883V139.312H337.012V140.209L333.564 147.062H332.549ZM340.723 147.191C339.825 147.191 339.123 146.833 338.618 146.117C338.117 145.397 337.866 144.42 337.866 143.185C337.866 141.96 338.118 140.988 338.623 140.268C339.132 139.545 339.832 139.183 340.723 139.183C341.615 139.183 342.311 139.543 342.813 140.263C343.318 140.979 343.57 141.951 343.57 143.179C343.57 144.415 343.319 145.392 342.818 146.112C342.317 146.832 341.619 147.191 340.723 147.191ZM339.332 145.5C339.662 146.065 340.125 146.348 340.723 146.348C341.321 146.348 341.783 146.067 342.109 145.505C342.435 144.939 342.598 144.166 342.598 143.185C342.598 142.218 342.433 141.451 342.104 140.886C341.774 140.316 341.314 140.032 340.723 140.032C340.133 140.032 339.671 140.316 339.338 140.886C339.005 141.455 338.838 142.22 338.838 143.179C338.838 144.16 339.003 144.934 339.332 145.5Z" fill="#525866"/>
<path d="M334.743 176.346C334.193 176.346 333.708 176.203 333.287 175.918C332.866 175.63 332.542 175.221 332.315 174.692C332.074 174.135 331.953 173.461 331.953 172.671C331.953 171.432 332.203 170.468 332.702 169.779C333.204 169.09 333.905 168.746 334.804 168.746C335.429 168.746 335.961 168.919 336.402 169.265C336.844 169.611 337.124 170.073 337.242 170.65H336.311C336.212 170.317 336.026 170.052 335.751 169.856C335.476 169.655 335.157 169.555 334.794 169.555C334.18 169.555 333.705 169.818 333.369 170.344C333.033 170.87 332.856 171.622 332.839 172.599H332.854C333.021 172.24 333.291 171.951 333.664 171.734C334.037 171.517 334.451 171.408 334.906 171.408C335.605 171.408 336.185 171.639 336.647 172.101C337.112 172.562 337.344 173.141 337.344 173.836C337.344 174.563 337.098 175.163 336.606 175.638C336.117 176.11 335.496 176.346 334.743 176.346ZM333.542 175.043C333.867 175.369 334.264 175.532 334.733 175.532C335.201 175.532 335.598 175.37 335.924 175.048C336.25 174.726 336.413 174.332 336.413 173.867C336.413 173.385 336.257 172.99 335.944 172.681C335.632 172.369 335.233 172.213 334.748 172.213C334.263 172.213 333.859 172.367 333.537 172.676C333.218 172.985 333.058 173.373 333.058 173.841C333.058 174.313 333.219 174.714 333.542 175.043ZM340.897 176.341C340.046 176.341 339.38 176.002 338.902 175.323C338.427 174.641 338.189 173.714 338.189 172.543C338.189 171.383 338.428 170.461 338.907 169.779C339.389 169.094 340.052 168.751 340.897 168.751C341.742 168.751 342.402 169.092 342.878 169.774C343.356 170.453 343.595 171.374 343.595 172.538C343.595 173.709 343.358 174.636 342.883 175.318C342.408 176 341.746 176.341 340.897 176.341ZM339.579 174.737C339.891 175.274 340.331 175.542 340.897 175.542C341.464 175.542 341.902 175.275 342.211 174.743C342.52 174.206 342.674 173.473 342.674 172.543C342.674 171.627 342.518 170.901 342.206 170.365C341.893 169.825 341.457 169.555 340.897 169.555C340.337 169.555 339.9 169.825 339.584 170.365C339.268 170.904 339.111 171.629 339.111 172.538C339.111 173.468 339.267 174.201 339.579 174.737Z" fill="#525866"/>
<path d="M335.035 205.367V203.756H331.141V202.88C331.474 202.261 331.897 201.554 332.409 200.759C332.925 199.964 333.635 198.917 334.541 197.617H335.97V202.907H337.066V203.756H335.97V205.367H335.035ZM332.097 202.886V202.907H335.035V198.422H335.019C333.662 200.36 332.688 201.847 332.097 202.886ZM340.723 205.496C339.825 205.496 339.123 205.138 338.618 204.422C338.117 203.702 337.866 202.725 337.866 201.489C337.866 200.265 338.118 199.292 338.623 198.573C339.132 197.849 339.832 197.488 340.723 197.488C341.615 197.488 342.311 197.848 342.813 198.567C343.318 199.284 343.57 200.256 343.57 201.484C343.57 202.719 343.319 203.697 342.818 204.417C342.317 205.136 341.619 205.496 340.723 205.496ZM339.332 203.804C339.662 204.37 340.125 204.653 340.723 204.653C341.321 204.653 341.783 204.372 342.109 203.81C342.435 203.244 342.598 202.47 342.598 201.489C342.598 200.522 342.433 199.756 342.104 199.19C341.774 198.621 341.314 198.336 340.723 198.336C340.133 198.336 339.671 198.621 339.338 199.19C339.005 199.76 338.838 200.524 338.838 201.484C338.838 202.465 339.003 203.238 339.332 203.804Z" fill="#525866"/>
<path d="M331.732 229.007C331.732 228.331 331.976 227.768 332.463 227.321C332.95 226.87 333.558 226.644 334.289 226.644C334.98 226.644 335.565 226.85 336.045 227.262C336.525 227.674 336.765 228.177 336.765 228.771C336.765 229.201 336.647 229.614 336.41 230.012C336.174 230.409 335.73 230.944 335.078 231.618L333.118 233.643V233.664H336.894V234.523H331.781V233.857L334.509 230.984C335.028 230.436 335.372 230.021 335.54 229.738C335.712 229.455 335.798 229.152 335.798 228.83C335.798 228.458 335.648 228.141 335.347 227.879C335.05 227.618 334.688 227.487 334.262 227.487C333.807 227.487 333.428 227.632 333.123 227.922C332.819 228.212 332.667 228.574 332.667 229.007V229.013H331.732V229.007ZM340.723 234.652C339.825 234.652 339.123 234.294 338.618 233.578C338.117 232.858 337.866 231.881 337.866 230.646C337.866 229.421 338.118 228.449 338.623 227.729C339.132 227.006 339.832 226.644 340.723 226.644C341.615 226.644 342.311 227.004 342.813 227.724C343.318 228.44 343.57 229.412 343.57 230.64C343.57 231.875 343.319 232.853 342.818 233.573C342.317 234.292 341.619 234.652 340.723 234.652ZM339.332 232.96C339.662 233.526 340.125 233.809 340.723 233.809C341.321 233.809 341.783 233.528 342.109 232.966C342.435 232.4 342.598 231.627 342.598 230.646C342.598 229.679 342.433 228.912 342.104 228.347C341.774 227.777 341.314 227.493 340.723 227.493C340.133 227.493 339.671 227.777 339.338 228.347C339.005 228.916 338.838 229.681 338.838 230.64C338.838 231.621 339.003 232.395 339.332 232.96Z" fill="#525866"/>
<path d="M340.723 263.801C339.825 263.801 339.123 263.443 338.618 262.727C338.117 262.007 337.866 261.029 337.866 259.794C337.866 258.569 338.118 257.597 338.623 256.877C339.132 256.154 339.832 255.792 340.723 255.792C341.615 255.792 342.311 256.152 342.813 256.872C343.318 257.588 343.57 258.56 343.57 259.789C343.57 261.024 343.319 262.001 342.818 262.721C342.317 263.441 341.619 263.801 340.723 263.801ZM339.332 262.109C339.662 262.675 340.125 262.958 340.723 262.958C341.321 262.958 341.783 262.676 342.109 262.114C342.435 261.549 342.598 260.775 342.598 259.794C342.598 258.827 342.433 258.061 342.104 257.495C341.774 256.926 341.314 256.641 340.723 256.641C340.133 256.641 339.671 256.926 339.338 257.495C339.005 258.064 338.838 258.829 338.838 259.789C338.838 260.77 339.003 261.543 339.332 262.109Z" fill="#525866"/>
<path d="M22.5751 35.42V31.924C22.9697 31.924 23.2951 31.8253 23.5511 31.628C23.8071 31.4253 24.0097 31.1507 24.1591 30.804C24.3137 30.452 24.4311 30.052 24.5111 29.604C24.5964 29.156 24.6604 28.684 24.7031 28.188C24.7671 27.516 24.8204 26.86 24.8631 26.22C24.9111 25.5747 24.9537 24.908 24.9911 24.22C25.0337 23.532 25.0791 22.7827 25.1271 21.972L32.5031 21.98V31.924H33.3591V35.42H31.6791V33.5H24.2471V35.42H22.5751ZM25.3191 31.924H30.8311V23.556L26.6711 23.548C26.6337 24.1347 26.6017 24.692 26.5751 25.22C26.5484 25.748 26.5137 26.2813 26.4711 26.82C26.4337 27.3533 26.3857 27.9267 26.3271 28.54C26.2684 29.1267 26.2071 29.6253 26.1431 30.036C26.0791 30.4413 25.9831 30.7933 25.8551 31.092C25.7324 31.3907 25.5537 31.668 25.3191 31.924ZM42.3922 24.86V33.5H40.7842V27.492L36.4642 33.5H35.1042V24.86H36.7122V30.748L41.0402 24.86H42.3922ZM44.6198 33.5V24.86H46.2918V28.388H50.5078V24.86H52.1798V33.5H50.5078V29.964H46.2918V33.5H44.6198ZM56.8647 33.74C56.2247 33.74 55.6887 33.6227 55.2567 33.388C54.8247 33.148 54.4967 32.8333 54.2727 32.444C54.054 32.0493 53.9447 31.6173 53.9447 31.148C53.9447 30.7107 54.022 30.3267 54.1767 29.996C54.3314 29.6653 54.5607 29.3853 54.8647 29.156C55.1687 28.9213 55.542 28.732 55.9847 28.588C56.3687 28.476 56.8034 28.3773 57.2887 28.292C57.774 28.2067 58.2834 28.1267 58.8167 28.052C59.3554 27.9773 59.8887 27.9027 60.4167 27.828L59.8087 28.164C59.8194 27.4867 59.6754 26.9853 59.3767 26.66C59.0834 26.3293 58.5767 26.164 57.8567 26.164C57.4034 26.164 56.9874 26.2707 56.6087 26.484C56.23 26.692 55.966 27.0387 55.8167 27.524L54.2567 27.044C54.47 26.3027 54.8754 25.7133 55.4727 25.276C56.0754 24.8387 56.8754 24.62 57.8727 24.62C58.646 24.62 59.318 24.7533 59.8887 25.02C60.4647 25.2813 60.886 25.6973 61.1527 26.268C61.2914 26.5507 61.3767 26.8493 61.4087 27.164C61.4407 27.4787 61.4567 27.8173 61.4567 28.18V33.5H59.9767V31.524L60.2647 31.78C59.9074 32.4413 59.4514 32.9347 58.8967 33.26C58.3474 33.58 57.67 33.74 56.8647 33.74ZM57.1607 32.372C57.6354 32.372 58.0434 32.2893 58.3847 32.124C58.726 31.9533 59.0007 31.7373 59.2087 31.476C59.4167 31.2147 59.5527 30.9427 59.6167 30.66C59.7074 30.404 59.758 30.116 59.7687 29.796C59.7847 29.476 59.7927 29.22 59.7927 29.028L60.3367 29.228C59.8087 29.308 59.3287 29.38 58.8967 29.444C58.4647 29.508 58.0727 29.572 57.7207 29.636C57.374 29.6947 57.0647 29.7667 56.7927 29.852C56.5634 29.932 56.358 30.028 56.1767 30.14C56.0007 30.252 55.8594 30.388 55.7527 30.548C55.6514 30.708 55.6007 30.9027 55.6007 31.132C55.6007 31.356 55.6567 31.564 55.7687 31.756C55.8807 31.9427 56.0514 32.092 56.2807 32.204C56.51 32.316 56.8034 32.372 57.1607 32.372ZM63.5261 33.5V24.86H64.9261L68.1181 31.196L71.3021 24.86H72.7101V33.5H71.0941V28.284L68.4941 33.5H67.7341L65.1341 28.284V33.5H63.5261ZM82.2359 24.86V33.5H80.6279V27.492L76.3079 33.5H74.9479V24.86H76.5559V30.748L80.8839 24.86H82.2359ZM84.4636 33.5L84.4716 24.86H86.1676V29.02L89.5596 24.86H91.6876L88.1036 29.18L92.0556 33.5H89.7836L86.1676 29.34V33.5H84.4636ZM95.3022 33.74C94.6622 33.74 94.1262 33.6227 93.6942 33.388C93.2622 33.148 92.9342 32.8333 92.7102 32.444C92.4915 32.0493 92.3822 31.6173 92.3822 31.148C92.3822 30.7107 92.4595 30.3267 92.6142 29.996C92.7689 29.6653 92.9982 29.3853 93.3022 29.156C93.6062 28.9213 93.9795 28.732 94.4222 28.588C94.8062 28.476 95.2409 28.3773 95.7262 28.292C96.2115 28.2067 96.7209 28.1267 97.2542 28.052C97.7929 27.9773 98.3262 27.9027 98.8542 27.828L98.2462 28.164C98.2569 27.4867 98.1129 26.9853 97.8142 26.66C97.5209 26.3293 97.0142 26.164 96.2942 26.164C95.8409 26.164 95.4249 26.2707 95.0462 26.484C94.6675 26.692 94.4035 27.0387 94.2542 27.524L92.6942 27.044C92.9075 26.3027 93.3129 25.7133 93.9102 25.276C94.5129 24.8387 95.3129 24.62 96.3102 24.62C97.0835 24.62 97.7555 24.7533 98.3262 25.02C98.9022 25.2813 99.3235 25.6973 99.5902 26.268C99.7289 26.5507 99.8142 26.8493 99.8462 27.164C99.8782 27.4787 99.8942 27.8173 99.8942 28.18V33.5H98.4142V31.524L98.7022 31.78C98.3449 32.4413 97.8889 32.9347 97.3342 33.26C96.7849 33.58 96.1075 33.74 95.3022 33.74ZM95.5982 32.372C96.0729 32.372 96.4809 32.2893 96.8222 32.124C97.1635 31.9533 97.4382 31.7373 97.6462 31.476C97.8542 31.2147 97.9902 30.9427 98.0542 30.66C98.1449 30.404 98.1955 30.116 98.2062 29.796C98.2222 29.476 98.2302 29.22 98.2302 29.028L98.7742 29.228C98.2462 29.308 97.7662 29.38 97.3342 29.444C96.9022 29.508 96.5102 29.572 96.1582 29.636C95.8115 29.6947 95.5022 29.7667 95.2302 29.852C95.0009 29.932 94.7955 30.028 94.6142 30.14C94.4382 30.252 94.2969 30.388 94.1902 30.548C94.0889 30.708 94.0382 30.9027 94.0382 31.132C94.0382 31.356 94.0942 31.564 94.2062 31.756C94.3182 31.9427 94.4889 32.092 94.7182 32.204C94.9475 32.316 95.2409 32.372 95.5982 32.372ZM112.455 24.86V33.5H110.847V27.492L106.527 33.5H105.167V24.86H106.775V30.748L111.103 24.86H112.455ZM117.77 33.74C116.933 33.74 116.181 33.5613 115.514 33.204C114.853 32.8467 114.33 32.3533 113.946 31.724L115.274 30.852C115.584 31.268 115.941 31.5907 116.346 31.82C116.757 32.0493 117.218 32.164 117.73 32.164C118.264 32.164 118.685 32.044 118.994 31.804C119.309 31.5587 119.466 31.2307 119.466 30.82C119.466 30.4947 119.376 30.2547 119.194 30.1C119.018 29.94 118.773 29.836 118.458 29.788C118.149 29.74 117.797 29.716 117.402 29.716H116.634V28.372H117.402C117.925 28.372 118.354 28.3 118.69 28.156C119.032 28.0067 119.202 27.7267 119.202 27.316C119.202 26.916 119.056 26.628 118.762 26.452C118.474 26.276 118.13 26.188 117.73 26.188C117.282 26.188 116.848 26.284 116.426 26.476C116.005 26.6627 115.637 26.8947 115.322 27.172L114.346 26.028C114.805 25.5853 115.328 25.2413 115.914 24.996C116.506 24.7453 117.141 24.62 117.818 24.62C118.373 24.62 118.885 24.7187 119.354 24.916C119.829 25.108 120.208 25.3933 120.49 25.772C120.778 26.1507 120.922 26.6173 120.922 27.172C120.922 27.604 120.826 27.9987 120.634 28.356C120.442 28.7133 120.149 29.0387 119.754 29.332L119.706 28.764C120.032 28.8653 120.304 29.028 120.522 29.252C120.741 29.476 120.904 29.74 121.01 30.044C121.122 30.3427 121.178 30.66 121.178 30.996C121.178 31.5773 121.024 32.0733 120.714 32.484C120.41 32.8947 120 33.2067 119.482 33.42C118.965 33.6333 118.394 33.74 117.77 33.74ZM122.932 33.5V24.86H124.332L127.524 31.196L130.708 24.86H132.116V33.5H130.5V28.284L127.9 33.5H127.14L124.54 28.284V33.5H122.932ZM138.194 33.74C137.336 33.74 136.581 33.5533 135.93 33.18C135.285 32.8013 134.781 32.276 134.418 31.604C134.061 30.9267 133.882 30.1427 133.882 29.252C133.882 28.308 134.058 27.4893 134.41 26.796C134.768 26.1027 135.264 25.5667 135.898 25.188C136.533 24.8093 137.272 24.62 138.114 24.62C138.994 24.62 139.744 24.8253 140.362 25.236C140.981 25.6413 141.442 26.22 141.746 26.972C142.056 27.724 142.178 28.6173 142.114 29.652H140.442V29.044C140.432 28.0413 140.24 27.3 139.866 26.82C139.498 26.34 138.936 26.1 138.178 26.1C137.341 26.1 136.712 26.364 136.29 26.892C135.869 27.42 135.658 28.1827 135.658 29.18C135.658 30.1293 135.869 30.8653 136.29 31.388C136.712 31.9053 137.32 32.164 138.114 32.164C138.637 32.164 139.088 32.0467 139.466 31.812C139.85 31.572 140.149 31.2307 140.362 30.788L142.002 31.308C141.666 32.0813 141.157 32.6813 140.474 33.108C139.792 33.5293 139.032 33.74 138.194 33.74ZM135.114 29.652V28.348H141.282V29.652H135.114ZM143.901 33.5V24.86H145.573V28.388H149.789V24.86H151.461V33.5H149.789V29.964H145.573V33.5H143.901ZM157.538 33.74C156.679 33.74 155.925 33.5533 155.274 33.18C154.629 32.8013 154.125 32.276 153.762 31.604C153.405 30.9267 153.226 30.1427 153.226 29.252C153.226 28.308 153.402 27.4893 153.754 26.796C154.111 26.1027 154.607 25.5667 155.242 25.188C155.877 24.8093 156.615 24.62 157.458 24.62C158.338 24.62 159.087 24.8253 159.706 25.236C160.325 25.6413 160.786 26.22 161.09 26.972C161.399 27.724 161.522 28.6173 161.458 29.652H159.786V29.044C159.775 28.0413 159.583 27.3 159.21 26.82C158.842 26.34 158.279 26.1 157.522 26.1C156.685 26.1 156.055 26.364 155.634 26.892C155.213 27.42 155.002 28.1827 155.002 29.18C155.002 30.1293 155.213 30.8653 155.634 31.388C156.055 31.9053 156.663 32.164 157.458 32.164C157.981 32.164 158.431 32.0467 158.81 31.812C159.194 31.572 159.493 31.2307 159.706 30.788L161.346 31.308C161.01 32.0813 160.501 32.6813 159.818 33.108C159.135 33.5293 158.375 33.74 157.538 33.74ZM154.458 29.652V28.348H160.626V29.652H154.458ZM163.245 33.5V24.86H164.917V28.388H169.133V24.86H170.805V33.5H169.133V29.964H164.917V33.5H163.245ZM180.33 24.86V33.5H178.722V27.492L174.402 33.5H173.042V24.86H174.65V30.748L178.978 24.86H180.33ZM186.421 23.868C186 23.868 185.613 23.764 185.261 23.556C184.915 23.348 184.637 23.0707 184.429 22.724C184.221 22.3773 184.117 21.9907 184.117 21.564H185.445C185.445 21.8307 185.541 22.06 185.733 22.252C185.925 22.444 186.155 22.54 186.421 22.54C186.693 22.54 186.923 22.444 187.109 22.252C187.301 22.06 187.397 21.8307 187.397 21.564H188.725C188.725 21.9907 188.621 22.3773 188.413 22.724C188.205 23.0707 187.925 23.348 187.573 23.556C187.227 23.764 186.843 23.868 186.421 23.868ZM189.845 24.86V33.5H188.237V27.492L183.917 33.5H182.557V24.86H184.165V30.748L188.493 24.86H189.845Z" fill="black"/>
<path d="M292.326 31.993L292.333 30.691L296.722 26.757C297.077 26.4443 297.317 26.1457 297.443 25.861C297.574 25.5763 297.639 25.2917 297.639 25.007C297.639 24.6477 297.56 24.3257 297.401 24.041C297.243 23.7517 297.023 23.523 296.743 23.355C296.463 23.187 296.141 23.103 295.777 23.103C295.404 23.103 295.07 23.1917 294.776 23.369C294.487 23.5417 294.261 23.7727 294.097 24.062C293.934 24.3513 293.855 24.664 293.859 25H292.361C292.361 24.3467 292.508 23.775 292.802 23.285C293.101 22.7903 293.509 22.4053 294.027 22.13C294.545 21.85 295.138 21.71 295.805 21.71C296.44 21.71 297.009 21.8547 297.513 22.144C298.017 22.4287 298.414 22.8207 298.703 23.32C298.997 23.8193 299.144 24.3887 299.144 25.028C299.144 25.49 299.084 25.882 298.962 26.204C298.841 26.526 298.659 26.8247 298.416 27.1C298.174 27.3753 297.87 27.674 297.506 27.996L294.118 31.02L293.957 30.6H299.144V31.993H292.326ZM304.337 32.21C303.651 32.21 303.045 32.0607 302.517 31.762C301.99 31.4587 301.575 31.0433 301.271 30.516C300.973 29.9887 300.823 29.382 300.823 28.696V25.224C300.823 24.538 300.973 23.9313 301.271 23.404C301.575 22.8767 301.99 22.4637 302.517 22.165C303.045 21.8617 303.651 21.71 304.337 21.71C305.023 21.71 305.63 21.8617 306.157 22.165C306.685 22.4637 307.098 22.8767 307.396 23.404C307.7 23.9313 307.851 24.538 307.851 25.224V28.696C307.851 29.382 307.7 29.9887 307.396 30.516C307.098 31.0433 306.685 31.4587 306.157 31.762C305.63 32.0607 305.023 32.21 304.337 32.21ZM304.337 30.81C304.711 30.81 305.049 30.7213 305.352 30.544C305.66 30.362 305.905 30.1193 306.087 29.816C306.269 29.508 306.36 29.165 306.36 28.787V25.119C306.36 24.7457 306.269 24.4073 306.087 24.104C305.905 23.796 305.66 23.5533 305.352 23.376C305.049 23.194 304.711 23.103 304.337 23.103C303.964 23.103 303.623 23.194 303.315 23.376C303.012 23.5533 302.769 23.796 302.587 24.104C302.405 24.4073 302.314 24.7457 302.314 25.119V28.787C302.314 29.165 302.405 29.508 302.587 29.816C302.769 30.1193 303.012 30.362 303.315 30.544C303.623 30.7213 303.964 30.81 304.337 30.81ZM309.526 31.993L309.533 30.691L313.922 26.757C314.276 26.4443 314.517 26.1457 314.643 25.861C314.773 25.5763 314.839 25.2917 314.839 25.007C314.839 24.6477 314.759 24.3257 314.601 24.041C314.442 23.7517 314.223 23.523 313.943 23.355C313.663 23.187 313.341 23.103 312.977 23.103C312.603 23.103 312.27 23.1917 311.976 23.369C311.686 23.5417 311.46 23.7727 311.297 24.062C311.133 24.3513 311.054 24.664 311.059 25H309.561C309.561 24.3467 309.708 23.775 310.002 23.285C310.3 22.7903 310.709 22.4053 311.227 22.13C311.745 21.85 312.337 21.71 313.005 21.71C313.639 21.71 314.209 21.8547 314.713 22.144C315.217 22.4287 315.613 22.8207 315.903 23.32C316.197 23.8193 316.344 24.3887 316.344 25.028C316.344 25.49 316.283 25.882 316.162 26.204C316.04 26.526 315.858 26.8247 315.616 27.1C315.373 27.3753 315.07 27.674 314.706 27.996L311.318 31.02L311.157 30.6H316.344V31.993H309.526ZM321.011 32.21C320.493 32.21 320.01 32.105 319.562 31.895C319.119 31.6803 318.739 31.3863 318.421 31.013C318.104 30.635 317.878 30.201 317.742 29.711L319.149 29.333C319.229 29.6317 319.364 29.8907 319.555 30.11C319.751 30.3293 319.98 30.4997 320.241 30.621C320.503 30.7377 320.773 30.796 321.053 30.796C321.422 30.796 321.756 30.7073 322.054 30.53C322.358 30.3527 322.596 30.1147 322.768 29.816C322.946 29.5173 323.034 29.1883 323.034 28.829C323.034 28.4603 322.943 28.1267 322.761 27.828C322.584 27.5293 322.344 27.2937 322.04 27.121C321.742 26.9437 321.413 26.855 321.053 26.855C320.643 26.855 320.295 26.9367 320.01 27.1C319.726 27.2633 319.504 27.4523 319.345 27.667L318.071 27.219L318.379 21.92H323.818V23.299H319.128L319.723 22.746L319.478 26.715L319.191 26.344C319.457 26.078 319.775 25.875 320.143 25.735C320.512 25.595 320.878 25.525 321.242 25.525C321.868 25.525 322.425 25.6697 322.915 25.959C323.41 26.2483 323.8 26.6427 324.084 27.142C324.369 27.6367 324.511 28.199 324.511 28.829C324.511 29.4543 324.35 30.0237 324.028 30.537C323.706 31.0457 323.279 31.4517 322.747 31.755C322.215 32.0583 321.637 32.21 321.011 32.21Z" fill="black"/>
<path d="M337.415 28.2984L333.702 24.5859L332.642 25.6464L337.415 30.4194L342.188 25.6464L341.127 24.5859L337.415 28.2984Z" fill="#868C98"/>
</svg>
