<svg width="36" height="36" viewBox="0 0 36 36" fill="none" xmlns="http://www.w3.org/2000/svg">
<g filter="url(#filter0_d_5279_22355)">
<path d="M2 9C2 4.58172 5.58172 1 10 1H26C30.4183 1 34 4.58172 34 9V25C34 29.4183 30.4183 33 26 33H10C5.58172 33 2 29.4183 2 25V9Z" fill="white"/>
<path d="M24.75 14V23.7448C24.7507 23.8432 24.732 23.9409 24.6949 24.0322C24.6579 24.1234 24.6032 24.2065 24.534 24.2766C24.4649 24.3468 24.3826 24.4026 24.2919 24.4409C24.2011 24.4792 24.1037 24.4993 24.0053 24.5H11.9948C11.7974 24.5 11.608 24.4216 11.4684 24.2821C11.3288 24.1426 11.2502 23.9534 11.25 23.756V10.244C11.25 9.84125 11.5867 9.5 12.0015 9.5H20.2478L24.75 14ZM23.25 14.75H19.5V11H12.75V23H23.25V14.75ZM15 13.25H17.25V14.75H15V13.25ZM15 16.25H21V17.75H15V16.25ZM15 19.25H21V20.75H15V19.25Z" fill="#525866"/>
</g>
<defs>
<filter id="filter0_d_5279_22355" x="0" y="0" width="36" height="36" filterUnits="userSpaceOnUse" color-interpolation-filters="sRGB">
<feFlood flood-opacity="0" result="BackgroundImageFix"/>
<feColorMatrix in="SourceAlpha" type="matrix" values="0 0 0 0 0 0 0 0 0 0 0 0 0 0 0 0 0 0 127 0" result="hardAlpha"/>
<feOffset dy="1"/>
<feGaussianBlur stdDeviation="1"/>
<feComposite in2="hardAlpha" operator="out"/>
<feColorMatrix type="matrix" values="0 0 0 0 0.321569 0 0 0 0 0.345098 0 0 0 0 0.4 0 0 0 0.06 0"/>
<feBlend mode="normal" in2="BackgroundImageFix" result="effect1_dropShadow_5279_22355"/>
<feBlend mode="normal" in="SourceGraphic" in2="effect1_dropShadow_5279_22355" result="shape"/>
</filter>
</defs>
</svg>
