<svg width="56" height="104" viewBox="0 0 56 104" fill="none" xmlns="http://www.w3.org/2000/svg">
<rect x="26" y="54" width="3" height="50" rx="1.5" fill="#FE6807"/>
<rect width="56" height="56" rx="12" fill="#FE6807"/>
<path d="M28.7699 13C29.8291 15.9927 31.9087 18.5166 34.6435 20.1287C37.3783 21.7408 40.5936 22.338 43.7249 21.8155C43.6046 23.2426 43.0336 24.5945 42.0945 25.6758C41.1553 26.757 39.8966 27.5116 38.5004 27.8305V38.4985L41.5004 38.5V41.5H14.5004V38.5H17.5004V27.8305C16.1041 27.5115 14.8454 26.7569 13.906 25.6757C12.9666 24.5945 12.3952 23.2427 12.2744 21.8155C15.406 22.3389 18.6218 21.7422 21.3573 20.1304C24.0927 18.5185 26.1728 15.9945 27.2324 13.0015H28.7699V13ZM35.5004 27.9985H20.5004V38.4985H35.5004V27.9985ZM28.0004 17.989L27.8354 18.2215C25.4722 21.4593 22.0122 23.7272 18.1004 24.6025L17.5634 24.712L18.5729 24.997H37.4324L38.4344 24.712L38.4179 24.709C34.3003 23.9256 30.6346 21.6058 28.1639 18.22L28.0004 17.9875V17.989Z" fill="white"/>
</svg>
