<svg width="125" height="125" viewBox="0 0 125 125" fill="none" xmlns="http://www.w3.org/2000/svg">
<ellipse cx="62.0196" cy="59.9496" rx="40" ry="46.9845" transform="rotate(-90 62.0196 59.9496)" fill="#191BDF" fill-opacity="0.24"/>
<ellipse cx="40.4541" cy="48.9824" rx="40.4541" ry="48.9824" transform="matrix(0.914633 -0.404286 0.520749 0.85371 0 36.71)" fill="#191BDF" fill-opacity="0.3"/>
<ellipse cx="41.0654" cy="48.0776" rx="41.0654" ry="48.0776" transform="matrix(0.95878 0.284149 -0.378332 0.92567 41.3164 5.99837)" fill="#191BDF" fill-opacity="0.4"/>
<path d="M66.8122 62.8895C66.0973 64.2839 64.9227 65.2947 63.5041 65.7347C62.0856 66.1748 60.5932 65.9924 59.3018 65.2204C58.0108 64.4483 57.0749 63.1799 56.6675 61.6478C56.2596 60.1162 56.4287 58.5043 57.1436 57.1103C58.151 55.1451 60.0409 54.0342 61.987 54.0342C62.8916 54.0342 63.8083 54.2738 64.654 54.7794C65.945 55.5514 66.8809 56.8199 67.2883 58.3519C67.6962 59.8835 67.5271 61.4955 66.8122 62.8895ZM81.8153 58.0176C81.6677 57.6778 81.4294 57.4021 81.1257 57.2211C80.6668 56.9464 80.1094 56.9261 79.6356 57.1662L70.7057 61.6857L77.5915 48.2097C78.0274 47.3569 77.7396 46.2782 76.9481 45.8054C76.5645 45.5759 76.122 45.5233 75.7015 45.654C75.2805 45.7856 74.9324 46.0857 74.7212 46.4999L69.9563 55.8248L68.192 40.5517C68.1275 39.9921 67.8159 39.4943 67.358 39.2209C67.0528 39.0386 66.708 38.967 66.3622 39.0141C65.9282 39.0727 65.5408 39.3105 65.2722 39.6831C65.003 40.0562 64.8844 40.5208 64.939 40.9894L66.1599 51.5578L56.4194 40.3217C56.3012 40.186 56.1657 40.0715 56.0157 39.9819C55.3919 39.6097 54.6228 39.7122 54.1018 40.2391C53.4421 40.9063 53.4085 42.0283 54.0262 42.7408L60.7661 50.5157L46.7694 47.6081C45.8812 47.4257 45.021 48.0532 44.8495 49.0118C44.679 49.9699 45.2621 50.9003 46.1499 51.085L55.8348 53.0959L42.9287 59.6286C42.5325 59.829 42.2321 60.1841 42.083 60.6288C41.934 61.0739 41.9545 61.5541 42.14 61.9822C42.5236 62.8659 43.5011 63.2473 44.3197 62.8336L53.2505 58.3141L46.3643 71.7901C45.9284 72.6438 46.2158 73.722 47.0077 74.1948C47.3913 74.4238 47.8338 74.4765 48.2539 74.3463C48.6748 74.2147 49.0229 73.9145 49.2346 73.5004L53.9995 64.1754L55.7638 79.4485C55.818 79.9181 56.0376 80.3365 56.3834 80.6269C56.674 80.8707 57.024 81 57.3861 81C57.4548 81 57.5239 80.9954 57.5935 80.9857C58.0276 80.9275 58.4154 80.6897 58.6841 80.3166C58.9532 79.9435 59.0709 79.4795 59.0167 79.0103L57.7954 68.4419L67.5369 79.6785C67.8359 80.0234 68.2415 80.2224 68.6793 80.2381C69.1171 80.2561 69.5344 80.0844 69.8539 79.7611C70.1735 79.4379 70.3572 78.9997 70.3716 78.5274C70.3861 78.0545 70.2291 77.6043 69.9301 77.2594L63.1897 69.4846L77.1864 72.3922C77.6167 72.4794 78.0531 72.3843 78.4157 72.1193C78.7778 71.8542 79.0235 71.4521 79.1058 70.988C79.2403 70.2335 78.9123 69.4767 78.29 69.105C78.1386 69.014 77.9751 68.9503 77.8055 68.9152L68.121 66.9034L81.0271 60.3716C81.4233 60.1712 81.7237 59.8156 81.8728 59.371C82.0214 58.9263 82.0013 58.4457 81.8153 58.0176Z" fill="white"/>
</svg>
