<svg width="80" height="80" viewBox="0 0 80 80" fill="none" xmlns="http://www.w3.org/2000/svg">
<g clip-path="url(#clip0_5279_27408)">
<rect width="80" height="80" fill="white"/>
<rect width="80" height="80" fill="#191BDF"/>
<path d="M36.2571 33.387C37.9951 32.2526 40.0008 31.861 41.9047 32.2857C43.8086 32.7103 45.3832 33.899 46.3382 35.6339C47.2926 37.3685 47.514 39.4408 46.9599 41.4697C46.4066 43.4983 45.1444 45.2407 43.4067 46.3745C40.9576 47.9732 38.0726 48.0107 35.8614 46.7341C34.8336 46.1406 33.951 45.2637 33.3257 44.1276C32.3713 42.393 32.1499 40.3206 32.704 38.2918C33.2572 36.2632 34.5195 34.5208 36.2571 33.387ZM15.9757 29.1462C15.9179 29.6339 16.0057 30.1071 16.2306 30.5145C16.5696 31.1314 17.1894 31.5204 17.8872 31.5551L31.034 32.2168L14.2643 43.1941C13.2029 43.8887 12.8139 45.3177 13.3994 46.3806C13.6829 46.8961 14.1507 47.2469 14.7153 47.3725C15.281 47.4974 15.8757 47.3807 16.3906 47.043L27.9949 39.4472L19.8609 58.1654C19.5627 58.8511 19.5864 59.6279 19.9252 60.2426C20.1508 60.6524 20.4951 60.9609 20.9193 61.1336C21.4514 61.3509 22.0494 61.3316 22.602 61.0794C23.1555 60.827 23.5987 60.3708 23.8477 59.796L29.476 46.8438L33.085 66.1528C33.1292 66.3864 33.2071 66.607 33.3181 66.8084C33.7798 67.6455 34.7217 68.0321 35.6634 67.7681C36.8559 67.4338 37.639 66.1658 37.4101 64.9414L34.913 51.5805L48.8866 64.1056C49.7748 64.898 51.1687 64.7408 51.9999 63.7512C52.8297 62.7614 52.7847 61.3091 51.8986 60.5144L42.229 51.8488L61.2302 52.8042C61.8134 52.8337 62.3905 52.6225 62.8551 52.209C63.3199 51.795 63.6153 51.2294 63.6887 50.6155C63.8395 49.3477 62.982 48.268 61.7772 48.2067L48.6293 47.5444L65.3995 36.5674C66.4616 35.8717 66.8508 34.4435 66.2648 33.3804C65.981 32.8654 65.5131 32.5146 64.9494 32.3887C64.3837 32.2639 63.789 32.3806 63.2735 32.718L51.6692 40.3137L59.8032 21.5956C60.0534 21.0201 60.0816 20.395 59.8815 19.8343C59.7131 19.3633 59.4013 18.9851 58.9898 18.7475C58.9118 18.7025 58.8301 18.6624 58.7446 18.6279C58.2128 18.41 57.6143 18.429 57.0613 18.6817C56.5079 18.9342 56.066 19.3905 55.8162 19.9654L50.1884 32.918L46.5787 13.6079C46.4678 13.0151 46.1392 12.5202 45.6521 12.215C45.1666 11.9071 44.5785 11.8308 44.0008 11.9928C43.4231 12.1548 42.9236 12.5382 42.5935 13.0718C42.2632 13.6059 42.1427 14.2265 42.2535 14.8193L44.7512 28.1805L30.7776 15.6553C30.3465 15.2727 29.7876 15.0958 29.1996 15.1627C28.6122 15.2298 28.066 15.531 27.6645 16.0106C27.0108 16.7899 26.8811 17.8752 27.3415 18.7108C27.4531 18.9147 27.5966 19.0953 27.766 19.2469L37.4346 27.9132L18.434 26.9568C17.8508 26.9273 17.2734 27.139 16.8088 27.5525C16.3448 27.9663 16.0486 28.5321 15.9757 29.1462Z" fill="white"/>
</g>
<defs>
<clipPath id="clip0_5279_27408">
<rect width="80" height="80" fill="white"/>
</clipPath>
</defs>
</svg>
