<svg width="32" height="32" viewBox="0 0 32 32" fill="none" xmlns="http://www.w3.org/2000/svg">
<path d="M4 18.6641L4 13.3307C4 8.30241 4 5.78826 5.5621 4.22616C7.12419 2.66406 9.63835 2.66406 14.6667 2.66406L17.3333 2.66406C22.3616 2.66406 24.8758 2.66406 26.4379 4.22616C28 5.78826 28 8.30241 28 13.3307V18.6641C28 23.6924 28 26.2065 26.4379 27.7686C24.8758 29.3307 22.3616 29.3307 17.3333 29.3307H14.6667C9.63835 29.3307 7.12419 29.3307 5.5621 27.7686C4 26.2065 4 23.6924 4 18.6641Z" stroke="#525866" stroke-width="1.5"/>
<path d="M15.1114 14.2222C16.518 15.6288 18.3707 17.0582 18.3707 17.0582L20.9104 14.5185C20.9104 14.5185 19.481 12.6659 18.0744 11.2593C16.6678 9.85267 14.8151 8.42328 14.8151 8.42328L12.2755 10.963C12.2755 10.963 13.7048 12.8156 15.1114 14.2222ZM15.1114 14.2222L10.667 18.6667M21.3337 14.0952L17.9474 17.4815M15.2384 8L11.8522 11.3862" stroke="#525866" stroke-width="1.5" stroke-linecap="round" stroke-linejoin="round"/>
<path d="M10.667 24L21.3337 24" stroke="#525866" stroke-width="1.5" stroke-linecap="round"/>
</svg>
