<svg width="16" height="15" viewBox="0 0 16 15" fill="none" xmlns="http://www.w3.org/2000/svg">
<path d="M8.24775 0C8.77736 1.49634 9.81713 2.75831 11.1845 3.56435C12.552 4.3704 14.1596 4.669 15.7252 4.40775C15.6651 5.12131 15.3796 5.79726 14.91 6.33789C14.4404 6.87852 13.8111 7.25582 13.113 7.41525V12.7493L14.613 12.75V14.25H1.113V12.75H2.613V7.41525C1.91485 7.25574 1.28548 6.87844 0.815788 6.33784C0.346101 5.79724 0.0604156 5.12134 0 4.40775C1.56579 4.66943 3.17371 4.37111 4.54143 3.56519C5.90915 2.75926 6.94921 1.49724 7.479 0.000750124H8.24775V0ZM11.613 7.49925H4.113V12.7493H11.613V7.49925ZM7.863 2.4945L7.7805 2.61075C6.59887 4.22963 4.86888 5.36359 2.913 5.80125L2.6445 5.856L3.14925 5.9985H12.579L13.08 5.856L13.0717 5.8545C11.0129 5.4628 9.18011 4.30292 7.94475 2.61L7.863 2.49375V2.4945Z" fill="#868C98"/>
</svg>
