<svg width="32" height="32" viewBox="0 0 32 32" fill="none" xmlns="http://www.w3.org/2000/svg">
<path d="M23.4401 12.9469C22.7689 12.7642 22.0627 12.6667 21.3337 12.6667C17.956 12.6667 15.0673 14.7598 13.8939 17.7198M23.4401 12.9469C26.8364 13.8714 29.3337 16.9774 29.3337 20.6667C29.3337 25.0849 25.7519 28.6667 21.3337 28.6667C19.2847 28.6667 17.4157 27.8964 16.0003 26.6296M23.4401 12.9469C23.8016 12.0349 24.0003 11.0407 24.0003 10C24.0003 5.58172 20.4186 2 16.0003 2C11.582 2 8.00033 5.58172 8.00033 10C8.00033 11.0407 8.19903 12.0349 8.56056 12.9469M13.8939 17.7198C13.5324 18.6318 13.3337 19.626 13.3337 20.6667C13.3337 23.036 14.3637 25.1648 16.0003 26.6296M13.8939 17.7198C11.4556 17.056 9.48071 15.2679 8.56056 12.9469M8.56056 12.9469C5.16424 13.8714 2.66699 16.9774 2.66699 20.6667C2.66699 25.0849 6.24871 28.6667 10.667 28.6667C12.7159 28.6667 14.585 27.8964 16.0003 26.6296" stroke="#525866" stroke-width="1.5" stroke-linecap="round"/>
</svg>
