<svg width="32" height="32" viewBox="0 0 32 32" fill="none" xmlns="http://www.w3.org/2000/svg">
<path d="M14.6709 2.66406H13.3419C8.96623 2.66406 6.77839 2.66406 5.22752 3.74915C4.65374 4.1506 4.15468 4.64927 3.75292 5.2226C2.66699 6.77227 2.66699 8.95842 2.66699 13.3307C2.66699 17.703 2.66699 19.8892 3.75292 21.4389C4.15468 22.0122 4.65374 22.5109 5.22752 22.9123C6.77839 23.9974 8.96623 23.9974 13.3419 23.9974H18.6794C23.0551 23.9974 25.2429 23.9974 26.7938 22.9123C27.3676 22.5109 27.8666 22.0122 28.2684 21.4389C29.0877 20.2697 29.2888 18.7896 29.3337 17.3307" stroke="#525866" stroke-width="1.5" stroke-linecap="round"/>
<path d="M24.0003 12.9498V14.6641M24.0003 12.9498C22.4579 12.9498 21.0991 12.1922 20.3021 11.0418M24.0003 12.9498C25.5427 12.9498 26.9016 12.1922 27.6986 11.0418M24.0003 4.37835C25.5428 4.37835 26.9018 5.13607 27.6987 6.28656M24.0003 4.37835C22.4578 4.37835 21.0989 5.13607 20.3019 6.28656M24.0003 4.37835V2.66406M29.3337 5.23549L27.6987 6.28656M18.6676 12.0926L20.3021 11.0418M18.667 5.23549L20.3019 6.28656M29.3331 12.0926L27.6986 11.0418M27.6987 6.28656C28.17 6.96688 28.4448 7.78453 28.4448 8.66406C28.4448 9.5437 28.1699 10.3614 27.6986 11.0418M20.3019 6.28656C19.8306 6.96688 19.5559 7.78453 19.5559 8.66406C19.5559 9.5437 19.8307 10.3614 20.3021 11.0418" stroke="#525866" stroke-width="1.125" stroke-linecap="round"/>
<path d="M14.667 20H17.3337" stroke="#525866" stroke-width="1.5" stroke-linecap="round" stroke-linejoin="round"/>
<path d="M16 24V29.3333" stroke="#525866" stroke-width="1.5"/>
<path d="M10.667 29.3359H21.3337" stroke="#525866" stroke-width="1.5" stroke-linecap="round"/>
</svg>
