<svg width="292" height="41" viewBox="0 0 292 41" fill="none" xmlns="http://www.w3.org/2000/svg">
<path d="M44.4544 17.3475C45.0397 17.3475 45.5681 17.4885 46.0396 17.7706C46.5112 18.0485 46.8859 18.4317 47.1638 18.9201C47.4417 19.4085 47.5806 19.9663 47.5806 20.5937V23.4862C47.5806 24.1514 47.4417 24.7346 47.1638 25.2356C46.8901 25.7324 46.507 26.1198 46.0144 26.3976C45.526 26.6755 44.9618 26.8145 44.3218 26.8145C43.8418 26.8145 43.3913 26.7239 42.9703 26.5429C42.5492 26.3619 42.1829 26.0924 41.8714 25.7345L42.844 24.8314C43.0166 25.0545 43.2334 25.2335 43.4945 25.3682C43.7555 25.5029 44.0313 25.5703 44.3218 25.5703C44.6965 25.5703 45.027 25.4798 45.3133 25.2987C45.6038 25.1177 45.8291 24.8819 45.9891 24.5914C46.1491 24.3009 46.2291 23.9893 46.2291 23.6567V21.9894L46.4943 22.2799C46.2333 22.621 45.9091 22.8904 45.5217 23.0883C45.1344 23.2862 44.7197 23.3851 44.2776 23.3851C43.7092 23.3851 43.2039 23.2546 42.7619 22.9936C42.3198 22.7325 41.9703 22.3768 41.7135 21.9263C41.4566 21.4757 41.3282 20.9663 41.3282 20.3979C41.3282 19.8295 41.4714 19.3158 41.7577 18.8569C42.044 18.398 42.4229 18.0317 42.8945 17.758C43.366 17.4843 43.886 17.3475 44.4544 17.3475ZM44.4544 18.6232C44.126 18.6232 43.825 18.7032 43.5513 18.8632C43.2818 19.019 43.0671 19.2316 42.9071 19.5011C42.7471 19.7706 42.6671 20.0695 42.6671 20.3979C42.6671 20.7263 42.7471 21.0273 42.9071 21.301C43.0671 21.5705 43.2818 21.7852 43.5513 21.9452C43.8208 22.1052 44.1197 22.1852 44.4481 22.1852C44.7765 22.1852 45.0754 22.1052 45.3449 21.9452C45.6144 21.7852 45.8291 21.5705 45.9891 21.301C46.1491 21.0273 46.2291 20.7263 46.2291 20.3979C46.2291 20.0737 46.1491 19.7769 45.9891 19.5074C45.8333 19.2379 45.6207 19.0232 45.3512 18.8632C45.0818 18.7032 44.7828 18.6232 44.4544 18.6232ZM49.8491 25.7408V24.3451H51.2448V25.7408H49.8491ZM49.8554 22.0841V20.6884H51.2511V22.0841H49.8554ZM57.3408 26.625V25.0398H53.2358V23.7893L56.1914 17.5306H57.7008L54.7452 23.7893H57.3408V21.3263H58.6797V23.7893H59.5829V25.0398H58.6797V26.625H57.3408ZM62.6843 26.625V18.9832L60.9728 20.0253V18.5538L62.6843 17.5306H64.0295V26.625H62.6843Z" fill="black"/>
<rect opacity="0.35" x="248.163" y="17.4574" width="17.8321" height="8.91603" rx="2.82341" stroke="black" stroke-width="0.743003"/>
<path opacity="0.4" d="M267.109 20.6406V23.6687C267.707 23.4122 268.096 22.8156 268.096 22.1547C268.096 21.4937 267.707 20.8971 267.109 20.6406" fill="black"/>
<rect x="249.277" y="18.5703" width="15.6031" height="6.68702" rx="1.85751" fill="black"/>
<path fill-rule="evenodd" clip-rule="evenodd" d="M236.105 19.395C237.953 19.395 239.73 20.0801 241.069 21.3087C241.17 21.4035 241.331 21.4023 241.431 21.306L242.395 20.3672C242.445 20.3184 242.473 20.2522 242.473 20.1833C242.472 20.1145 242.443 20.0486 242.392 20.0003C238.877 16.7499 233.332 16.7499 229.817 20.0003C229.766 20.0486 229.737 20.1144 229.736 20.1833C229.736 20.2521 229.764 20.3183 229.814 20.3672L230.778 21.306C230.878 21.4025 231.039 21.4037 231.14 21.3087C232.479 20.0801 234.257 19.3949 236.105 19.395ZM236.102 22.5306C237.111 22.5306 238.083 22.9108 238.831 23.5974C238.932 23.6949 239.091 23.6928 239.19 23.5927L240.146 22.6124C240.197 22.561 240.225 22.4912 240.224 22.4188C240.223 22.3463 240.194 22.2771 240.142 22.2268C237.866 20.0788 234.341 20.0788 232.064 22.2268C232.013 22.2771 231.983 22.3463 231.983 22.4188C231.982 22.4913 232.01 22.5611 232.061 22.6124L233.017 23.5927C233.115 23.6928 233.275 23.6949 233.376 23.5974C234.123 22.9112 235.095 22.5311 236.102 22.5306ZM237.978 24.6062C237.979 24.6845 237.952 24.76 237.902 24.8148L236.285 26.6387C236.237 26.6923 236.173 26.7225 236.105 26.7225C236.038 26.7225 235.973 26.6923 235.926 26.6387L234.308 24.8148C234.258 24.7599 234.231 24.6845 234.232 24.6062C234.234 24.5279 234.264 24.4538 234.316 24.4013C235.349 23.4251 236.861 23.4251 237.894 24.4013C237.946 24.4538 237.977 24.528 237.978 24.6062Z" fill="black"/>
<path fill-rule="evenodd" clip-rule="evenodd" d="M224.164 18.336C224.164 17.8657 223.809 17.4844 223.372 17.4844H222.579C222.141 17.4844 221.786 17.8657 221.786 18.336V25.717C221.786 26.1873 222.141 26.5686 222.579 26.5686H223.372C223.809 26.5686 224.164 26.1873 224.164 25.717V18.336ZM218.641 19.3012H219.433C219.871 19.3012 220.226 19.6917 220.226 20.1733V25.6965C220.226 26.1782 219.871 26.5686 219.433 26.5686H218.641C218.203 26.5686 217.848 26.1782 217.848 25.6965V20.1733C217.848 19.6917 218.203 19.3012 218.641 19.3012ZM215.422 21.2695H214.629C214.192 21.2695 213.837 21.6649 213.837 22.1527V25.6854C213.837 26.1732 214.192 26.5686 214.629 26.5686H215.422C215.86 26.5686 216.215 26.1732 216.215 25.6854V22.1527C216.215 21.6649 215.86 21.2695 215.422 21.2695ZM211.484 23.0863H210.691C210.253 23.0863 209.898 23.4761 209.898 23.9569V25.6981C209.898 26.1789 210.253 26.5686 210.691 26.5686H211.484C211.921 26.5686 212.276 26.1789 212.276 25.6981V23.9569C212.276 23.4761 211.921 23.0863 211.484 23.0863Z" fill="black"/>
</svg>
