<svg width="32" height="32" viewBox="0 0 32 32" fill="none" xmlns="http://www.w3.org/2000/svg">
<path d="M5.33301 20L5.33301 25.3333" stroke="#525866" stroke-width="1.5" stroke-linecap="round" stroke-linejoin="round"/>
<path d="M16 12L16 25.3333" stroke="#525866" stroke-width="1.5" stroke-linecap="round" stroke-linejoin="round"/>
<path d="M29.333 29.3359L2.66634 29.3359" stroke="#525866" stroke-width="1.5" stroke-linecap="round" stroke-linejoin="round"/>
<path d="M26.666 17.3359L26.666 25.3359" stroke="#525866" stroke-width="1.5" stroke-linecap="round" stroke-linejoin="round"/>
<path d="M7.46614 11.7306C6.97963 11.083 6.20508 10.6641 5.33268 10.6641C3.85992 10.6641 2.66602 11.858 2.66602 13.3307C2.66602 14.8035 3.85992 15.9974 5.33268 15.9974C6.80544 15.9974 7.99935 14.8035 7.99935 13.3307C7.99935 12.7304 7.80095 12.1763 7.46614 11.7306ZM7.46614 11.7306L13.8659 6.93082M13.8659 6.93082C14.3524 7.57847 15.127 7.9974 15.9993 7.9974C17.0433 7.9974 17.9472 7.39747 18.385 6.52356M13.8659 6.93082C13.5311 6.48512 13.3327 5.93109 13.3327 5.33073C13.3327 3.85797 14.5266 2.66406 15.9993 2.66406C17.4721 2.66406 18.666 3.85797 18.666 5.33073C18.666 5.7595 18.5648 6.16464 18.385 6.52356M18.385 6.52356L24.2804 9.47123M24.2804 9.47123C24.1005 9.83015 23.9993 10.2353 23.9993 10.6641C23.9993 12.1368 25.1933 13.3307 26.666 13.3307C28.1388 13.3307 29.3327 12.1368 29.3327 10.6641C29.3327 9.1913 28.1388 7.9974 26.666 7.9974C25.622 7.9974 24.7182 8.59732 24.2804 9.47123Z" stroke="#525866" stroke-width="1.5"/>
</svg>
